<svg width="25" height="25" viewBox="0 0 25 25" fill="none" xmlns="http://www.w3.org/2000/svg">
<path d="M11.1455 13.5205C11.1455 13.0133 10.9661 12.5804 10.6074 12.2217C10.2487 11.863 9.81576 11.6836 9.30859 11.6836C8.80143 11.6836 8.36849 11.863 8.00977 12.2217C7.65104 12.5804 7.47168 13.0133 7.47168 13.5205H8.58496C8.59733 13.3226 8.67155 13.1587 8.80762 13.0288C8.94368 12.8989 9.11068 12.834 9.30859 12.834C9.49414 12.834 9.65804 12.8989 9.80029 13.0288C9.94255 13.1587 10.0199 13.3226 10.0322 13.5205H11.1455ZM15.6914 11.6836C15.1842 11.6836 14.7513 11.863 14.3926 12.2217C14.0339 12.5804 13.8545 13.0133 13.8545 13.5205H14.9678C14.9801 13.3226 15.0575 13.1587 15.1997 13.0288C15.342 12.8989 15.5059 12.834 15.6914 12.834C15.8893 12.834 16.0563 12.8989 16.1924 13.0288C16.3285 13.1587 16.4027 13.3226 16.415 13.5205H17.5283C17.5283 13.0133 17.349 12.5804 16.9902 12.2217C16.6315 11.863 16.1986 11.6836 15.6914 11.6836ZM12.5 16.7676C12.1536 16.7676 11.8258 16.681 11.5166 16.5078C11.2074 16.3346 10.96 16.0934 10.7744 15.7842L9.82812 16.3594C10.1003 16.8171 10.4714 17.1851 10.9414 17.4634C11.4115 17.7417 11.931 17.8809 12.5 17.8809C13.069 17.8809 13.5885 17.7417 14.0586 17.4634C14.5286 17.1851 14.8997 16.8171 15.1719 16.3594H15.1904L14.2256 15.7842C14.04 16.0811 13.7957 16.3192 13.4927 16.4985C13.1896 16.6779 12.8587 16.7676 12.5 16.7676ZM21.2764 11.5352C21.1032 11.3743 20.9084 11.2352 20.6919 11.1177C20.4754 11.0002 20.2497 10.9167 20.0146 10.8672H19.9961C19.724 10.0632 19.3467 9.33333 18.8643 8.67773C18.3818 8.00977 17.8128 7.43457 17.1572 6.95215C16.5016 6.46973 15.778 6.09245 14.9863 5.82031C14.1947 5.54818 13.3659 5.41211 12.5 5.41211H12.1289C11.6836 5.41211 11.3001 5.25439 10.9785 4.93896C10.6569 4.62354 10.4961 4.24316 10.4961 3.79785H9.38281C9.38281 4.09473 9.43229 4.38232 9.53125 4.66064C9.63021 4.93896 9.76009 5.18945 9.9209 5.41211H9.56836C9.12305 5.41211 8.74268 5.25439 8.42725 4.93896C8.11182 4.62354 7.9541 4.24316 7.9541 3.79785H6.84082C6.84082 4.40397 7.01709 4.94206 7.36963 5.41211C7.72217 5.88216 8.17057 6.20996 8.71484 6.39551C8.2819 6.63053 7.8737 6.90885 7.49023 7.23047C7.10677 7.53971 6.76042 7.88298 6.45117 8.26025C6.14193 8.63753 5.86361 9.03646 5.61621 9.45703C5.38118 9.88997 5.18327 10.3415 5.02246 10.8115L5.00391 10.8672C4.75651 10.9167 4.52458 11.0002 4.30811 11.1177C4.09163 11.2352 3.89681 11.3743 3.72363 11.5352C3.50098 11.7578 3.32471 12.0207 3.19482 12.3237C3.06494 12.6268 3 12.9453 3 13.2793C3 13.2793 3 13.2824 3 13.2886C3 13.2948 3 13.2979 3 13.2979C3 13.6195 3.06185 13.9287 3.18555 14.2256C3.30924 14.5225 3.48242 14.7884 3.70508 15.0234C3.89062 15.209 4.09163 15.3605 4.30811 15.478C4.52458 15.5955 4.75651 15.679 5.00391 15.7285C5.27604 16.5202 5.65332 17.25 6.13574 17.918C6.61816 18.5859 7.18717 19.1611 7.84277 19.6436C8.49837 20.126 9.22201 20.4971 10.0137 20.7568C10.8053 21.029 11.6341 21.165 12.5 21.165C13.3659 21.165 14.1947 21.029 14.9863 20.7568C15.778 20.4971 16.4985 20.126 17.1479 19.6436C17.7974 19.1611 18.3695 18.5921 18.8643 17.9365C19.3467 17.2809 19.7178 16.5635 19.9775 15.7842L19.9961 15.7285C20.2435 15.679 20.4754 15.5955 20.6919 15.478C20.9084 15.3605 21.1094 15.209 21.2949 15.0234C21.5176 14.8008 21.6908 14.541 21.8145 14.2441C21.9382 13.9473 22 13.6318 22 13.2979C22 12.9639 21.9382 12.6453 21.8145 12.3423C21.6908 12.0392 21.5114 11.7702 21.2764 11.5352ZM19.5508 14.6523H19.1426L19.0312 15.0605C18.821 15.7904 18.5117 16.4583 18.1035 17.0645C17.6829 17.6706 17.1882 18.1963 16.6191 18.6416C16.0501 19.0869 15.4131 19.4333 14.708 19.6807C14.0153 19.9281 13.2793 20.0518 12.5 20.0518C11.7207 20.0518 10.9847 19.9281 10.292 19.6807C9.58691 19.4333 8.94987 19.09 8.38086 18.6509C7.81185 18.2118 7.31706 17.6891 6.89648 17.083C6.48828 16.4769 6.18522 15.8213 5.9873 15.1162L5.96875 15.0605L5.85742 14.6523H5.44922C5.07812 14.64 4.7627 14.5039 4.50293 14.2441C4.24316 13.9844 4.11328 13.6689 4.11328 13.2979C4.11328 13.1123 4.1473 12.936 4.21533 12.769C4.28337 12.6021 4.37923 12.4567 4.50293 12.333C4.62663 12.2093 4.76888 12.1134 4.92969 12.0454C5.09049 11.9774 5.26367 11.9372 5.44922 11.9248H5.85742L5.96875 11.5166C6.17904 10.7992 6.48828 10.1312 6.89648 9.5127C7.31706 8.90658 7.81185 8.38086 8.38086 7.93555C8.94987 7.49023 9.58691 7.14388 10.292 6.89648C10.9847 6.64909 11.7207 6.52539 12.5 6.52539C13.0072 6.52539 13.437 6.70475 13.7896 7.06348C14.1421 7.4222 14.3184 7.85514 14.3184 8.3623C14.3184 8.8571 14.1421 9.28385 13.7896 9.64258C13.437 10.0013 13.0072 10.1807 12.5 10.1807C11.9928 10.1807 11.563 10.0013 11.2104 9.64258C10.8579 9.28385 10.6816 8.8571 10.6816 8.3623H9.56836C9.56836 9.16634 9.85286 9.85596 10.4219 10.4312C10.9909 11.0063 11.6836 11.2939 12.5 11.2939C13.3164 11.2939 14.0091 11.0063 14.5781 10.4312C15.1471 9.85596 15.4316 9.16634 15.4316 8.3623C15.4316 8.12728 15.4069 7.90153 15.3574 7.68506C15.3079 7.46859 15.2337 7.26139 15.1348 7.06348C15.6172 7.27376 16.0625 7.52734 16.4707 7.82422C16.8789 8.12109 17.25 8.45817 17.584 8.83545C17.918 9.21273 18.2025 9.62402 18.4375 10.0693C18.6849 10.5146 18.8766 10.9847 19.0127 11.4795L19.0312 11.5166L19.1426 11.9248H19.5508C19.724 11.9372 19.891 11.9774 20.0518 12.0454C20.2126 12.1134 20.361 12.2093 20.4971 12.333C20.6208 12.4567 20.7166 12.6021 20.7847 12.769C20.8527 12.936 20.8867 13.1123 20.8867 13.2979C20.8867 13.6566 20.7568 13.9689 20.4971 14.2349C20.2373 14.5008 19.9219 14.64 19.5508 14.6523Z" fill="black"/>
<line x1="20.5303" y1="4.53033" x2="4.53033" y2="20.5303" stroke="black" stroke-width="1.5"/>
<circle cx="12.5" cy="12.5" r="11.75" stroke="black" stroke-width="1.5"/>
</svg>
