<svg width="25" height="25" viewBox="0 0 25 25" fill="none" xmlns="http://www.w3.org/2000/svg">
<path d="M10.7178 13.8428C10.7178 13.1755 10.4818 12.6058 10.0098 12.1338C9.53776 11.6618 8.9681 11.4258 8.30078 11.4258C7.63346 11.4258 7.0638 11.6618 6.5918 12.1338C6.11979 12.6058 5.88379 13.1755 5.88379 13.8428H7.34863C7.36491 13.5824 7.46256 13.3667 7.6416 13.1958C7.82064 13.0249 8.04036 12.9395 8.30078 12.9395C8.54492 12.9395 8.76058 13.0249 8.94775 13.1958C9.13493 13.3667 9.23665 13.5824 9.25293 13.8428H10.7178ZM16.6992 11.4258C16.0319 11.4258 15.4622 11.6618 14.9902 12.1338C14.5182 12.6058 14.2822 13.1755 14.2822 13.8428H15.7471C15.7633 13.5824 15.8651 13.3667 16.0522 13.1958C16.2394 13.0249 16.4551 12.9395 16.6992 12.9395C16.9596 12.9395 17.1794 13.0249 17.3584 13.1958C17.5374 13.3667 17.6351 13.5824 17.6514 13.8428H19.1162C19.1162 13.1755 18.8802 12.6058 18.4082 12.1338C17.9362 11.6618 17.3665 11.4258 16.6992 11.4258ZM12.5 18.1152C12.0443 18.1152 11.613 18.0013 11.2061 17.7734C10.7992 17.5456 10.4736 17.2282 10.2295 16.8213L8.98438 17.5781C9.34245 18.1803 9.83073 18.6646 10.4492 19.0308C11.0677 19.397 11.7513 19.5801 12.5 19.5801C13.2487 19.5801 13.9323 19.397 14.5508 19.0308C15.1693 18.6646 15.6576 18.1803 16.0156 17.5781H16.04L14.7705 16.8213C14.5264 17.2119 14.2049 17.5252 13.8062 17.7612C13.4074 17.9972 12.972 18.1152 12.5 18.1152ZM24.0479 11.2305C23.82 11.0189 23.5636 10.8358 23.2788 10.6812C22.994 10.5265 22.6969 10.4167 22.3877 10.3516H22.3633C22.0052 9.29362 21.5088 8.33333 20.874 7.4707C20.2393 6.5918 19.4906 5.83496 18.6279 5.2002C17.7653 4.56543 16.8132 4.06901 15.7715 3.71094C14.7298 3.35287 13.6393 3.17383 12.5 3.17383H12.0117C11.4258 3.17383 10.9212 2.96631 10.498 2.55127C10.0749 2.13623 9.86328 1.63574 9.86328 1.0498H8.39844C8.39844 1.44043 8.46354 1.81885 8.59375 2.18506C8.72396 2.55127 8.89486 2.88086 9.10645 3.17383H8.64258C8.05664 3.17383 7.55615 2.96631 7.14111 2.55127C6.72607 2.13623 6.51855 1.63574 6.51855 1.0498H5.05371C5.05371 1.84733 5.28564 2.55534 5.74951 3.17383C6.21338 3.79232 6.80339 4.22363 7.51953 4.46777C6.94987 4.77702 6.41276 5.14323 5.9082 5.56641C5.40365 5.97331 4.94792 6.42497 4.54102 6.92139C4.13411 7.41781 3.7679 7.94271 3.44238 8.49609C3.13314 9.06575 2.87272 9.65983 2.66113 10.2783L2.63672 10.3516C2.3112 10.4167 2.00602 10.5265 1.72119 10.6812C1.43636 10.8358 1.18001 11.0189 0.952148 11.2305C0.65918 11.5234 0.427246 11.8693 0.256348 12.2681C0.0854492 12.6668 0 13.0859 0 13.5254C0 13.5254 0 13.5295 0 13.5376C0 13.5457 0 13.5498 0 13.5498C0 13.973 0.0813802 14.3799 0.244141 14.7705C0.406901 15.1611 0.634766 15.5111 0.927734 15.8203C1.17188 16.0645 1.43636 16.2638 1.72119 16.4185C2.00602 16.5731 2.3112 16.6829 2.63672 16.748C2.99479 17.7897 3.49121 18.75 4.12598 19.6289C4.76074 20.5078 5.50944 21.2646 6.37207 21.8994C7.2347 22.5342 8.18685 23.0225 9.22852 23.3643C10.2702 23.7223 11.3607 23.9014 12.5 23.9014C13.6393 23.9014 14.7298 23.7223 15.7715 23.3643C16.8132 23.0225 17.7612 22.5342 18.6157 21.8994C19.4702 21.2646 20.223 20.516 20.874 19.6533C21.5088 18.7907 21.9971 17.8467 22.3389 16.8213L22.3633 16.748C22.6888 16.6829 22.994 16.5731 23.2788 16.4185C23.5636 16.2638 23.8281 16.0645 24.0723 15.8203C24.3652 15.5273 24.5931 15.1855 24.7559 14.7949C24.9186 14.4043 25 13.9893 25 13.5498C25 13.1104 24.9186 12.6912 24.7559 12.2925C24.5931 11.8937 24.3571 11.5397 24.0479 11.2305ZM21.7773 15.332H21.2402L21.0938 15.8691C20.8171 16.8294 20.4102 17.7083 19.873 18.5059C19.3197 19.3034 18.6686 19.9951 17.9199 20.5811C17.1712 21.167 16.333 21.6227 15.4053 21.9482C14.4938 22.2738 13.5254 22.4365 12.5 22.4365C11.4746 22.4365 10.5062 22.2738 9.59473 21.9482C8.66699 21.6227 7.82878 21.1711 7.08008 20.5933C6.33138 20.0155 5.68034 19.3278 5.12695 18.5303C4.58984 17.7327 4.19108 16.8701 3.93066 15.9424L3.90625 15.8691L3.75977 15.332H3.22266C2.73438 15.3158 2.31934 15.1367 1.97754 14.7949C1.63574 14.4531 1.46484 14.0381 1.46484 13.5498C1.46484 13.3057 1.5096 13.0737 1.59912 12.854C1.68864 12.6343 1.81478 12.443 1.97754 12.2803C2.1403 12.1175 2.32747 11.9914 2.53906 11.9019C2.75065 11.8123 2.97852 11.7594 3.22266 11.7432H3.75977L3.90625 11.2061C4.18294 10.262 4.58984 9.38314 5.12695 8.56934C5.68034 7.77181 6.33138 7.08008 7.08008 6.49414C7.82878 5.9082 8.66699 5.45247 9.59473 5.12695C10.5062 4.80143 11.4746 4.63867 12.5 4.63867C13.1673 4.63867 13.7329 4.87467 14.1968 5.34668C14.6606 5.81869 14.8926 6.38835 14.8926 7.05566C14.8926 7.70671 14.6606 8.26823 14.1968 8.74023C13.7329 9.21224 13.1673 9.44824 12.5 9.44824C11.8327 9.44824 11.2671 9.21224 10.8032 8.74023C10.3394 8.26823 10.1074 7.70671 10.1074 7.05566H8.64258C8.64258 8.11361 9.01693 9.021 9.76562 9.77783C10.5143 10.5347 11.4258 10.9131 12.5 10.9131C13.5742 10.9131 14.4857 10.5347 15.2344 9.77783C15.9831 9.021 16.3574 8.11361 16.3574 7.05566C16.3574 6.74642 16.3249 6.44938 16.2598 6.16455C16.1947 5.87972 16.097 5.6071 15.9668 5.34668C16.6016 5.62337 17.1875 5.95703 17.7246 6.34766C18.2617 6.73828 18.75 7.1818 19.1895 7.67822C19.6289 8.17464 20.0033 8.71582 20.3125 9.30176C20.638 9.8877 20.8903 10.5062 21.0693 11.1572L21.0938 11.2061L21.2402 11.7432H21.7773C22.0052 11.7594 22.2249 11.8123 22.4365 11.9019C22.6481 11.9914 22.8434 12.1175 23.0225 12.2803C23.1852 12.443 23.3114 12.6343 23.4009 12.854C23.4904 13.0737 23.5352 13.3057 23.5352 13.5498C23.5352 14.0218 23.3643 14.4328 23.0225 14.7827C22.6807 15.1326 22.2656 15.3158 21.7773 15.332Z" fill="black"/>
</svg>
