<svg width="24" height="25" viewBox="0 0 24 25" fill="none" xmlns="http://www.w3.org/2000/svg">
<g clip-path="url(#clip0_96_173)">
<g clip-path="url(#clip1_96_173)">
<path d="M20.1384 16.7136L19.409 17.1392C19.1412 17.2955 18.8096 17.2937 18.5436 17.1345L17.8619 16.7265C17.1539 16.3028 16.2716 16.298 15.559 16.7139L14.8304 17.1392C14.5627 17.2955 14.2311 17.2937 13.9651 17.1344L13.2834 16.7264C12.5755 16.3028 11.6931 16.298 10.9805 16.7138L10.252 17.1391C9.98431 17.2955 9.65267 17.2936 9.38666 17.1344L8.70495 16.7264C7.99705 16.3028 7.11463 16.298 6.40203 16.7138L5.67345 17.1391C5.4057 17.2954 5.07406 17.2935 4.80809 17.1344L4.13094 16.7291L3.40625 17.9286L4.08345 18.334C4.79089 18.7573 5.6727 18.7622 6.38483 18.3466L7.11336 17.9213C7.38158 17.7647 7.71378 17.7666 7.98027 17.9261L8.66197 18.3341C9.36941 18.7574 10.2513 18.7622 10.9634 18.3467L11.6919 17.9214C11.9601 17.7648 12.2923 17.7666 12.5588 17.9261L13.2405 18.3341C13.5979 18.548 13.9998 18.6551 14.4018 18.6551C14.7956 18.6551 15.1895 18.5523 15.5419 18.3467L16.2704 17.9214C16.5387 17.7648 16.8709 17.7667 17.1373 17.9261L17.819 18.3342C18.5265 18.7575 19.4083 18.7623 20.1205 18.3467L20.8498 17.9209L20.1384 16.7136Z" fill="black"/>
<path d="M20.1383 20.2282L19.409 20.6539C19.1412 20.8103 18.8096 20.8084 18.5435 20.6491L17.8619 20.2412C17.154 19.8175 16.2716 19.8127 15.559 20.2286L14.8304 20.6539C14.5627 20.8103 14.2311 20.8085 13.965 20.6491L13.2834 20.2412C12.5754 19.8175 11.693 19.8126 10.9805 20.2286L10.2519 20.6538C9.98422 20.8102 9.65258 20.8084 9.38652 20.649L8.70486 20.2411C7.99691 19.8175 7.11448 19.8126 6.40198 20.2285L5.67341 20.6538C5.40561 20.8101 5.07406 20.8082 4.808 20.649L4.13084 20.2437L3.40625 21.4434L4.08336 21.8486C4.7908 22.2721 5.67266 22.2769 6.38473 21.8612L7.11331 21.436C7.38163 21.2795 7.71378 21.2813 7.98027 21.4408L8.66192 21.8486C9.36936 22.2722 10.2512 22.277 10.9633 21.8613L11.6919 21.436C11.9601 21.2795 12.2923 21.2814 12.5588 21.4408L13.2404 21.8487C13.5978 22.0627 13.9997 22.1697 14.4018 22.1697C14.7955 22.1697 15.1895 22.067 15.5418 21.8613L16.2704 21.4361C16.5387 21.2795 16.8709 21.2814 17.1373 21.4408L17.819 21.8487C18.5264 22.2723 19.4082 22.2771 20.1204 21.8614L20.8497 21.4357L20.1383 20.2282Z" fill="black"/>
<path d="M16.2741 9.09839V4.86436C16.2741 3.37861 15.0598 2.16992 13.5671 2.16992C12.0745 2.16992 10.8602 3.37861 10.8602 4.86436V6.29906H12.2664V4.86436C12.2664 4.15044 12.8499 3.56968 13.5671 3.56968C14.2843 3.56968 14.8678 4.15044 14.8678 4.86436V9.09839H9.6397V4.86436C9.6397 3.37861 8.42536 2.16992 6.93277 2.16992C5.44017 2.16992 4.22583 3.37866 4.22583 4.86436V6.29906H5.63208V4.86436C5.63208 4.15044 6.21553 3.56968 6.93272 3.56968C7.64991 3.56968 8.23341 4.15044 8.23341 4.86436V9.09839H0V10.4981H8.23345V15.607H9.6397V13.5075H14.8678V15.607H16.2741V10.4981H24V9.09839H16.2741ZM14.8678 12.1078H9.6397V10.4981H14.8678V12.1078Z" fill="black"/>
</g>
</g>
<defs>
<clipPath id="clip0_96_173">
<rect width="24" height="24" fill="white" transform="translate(0 0.169922)"/>
</clipPath>
<clipPath id="clip1_96_173">
<rect width="24" height="24" fill="white" transform="translate(0 0.169922)"/>
</clipPath>
</defs>
</svg>
