<svg width="25" height="26" viewBox="0 0 25 26" fill="none" xmlns="http://www.w3.org/2000/svg">
<path d="M5.7373 4.04004C6.55111 4.04004 7.55208 4.14177 8.74023 4.34521C9.92839 4.54867 11.0921 4.7806 12.2314 5.04102C12.8011 5.17122 13.3301 5.29736 13.8184 5.41943C14.3066 5.5415 14.7298 5.65137 15.0879 5.74902L15.21 5.77344V10.8516L15.0879 10.876C14.7298 10.9736 14.3066 11.0835 13.8184 11.2056C13.3301 11.3276 12.8011 11.4538 12.2314 11.584C11.0921 11.8444 9.92839 12.0763 8.74023 12.2798C7.55208 12.4832 6.55111 12.585 5.7373 12.585C5.00488 12.585 4.37826 12.471 3.85742 12.2432C3.33659 12.0153 2.90527 11.7223 2.56348 11.3643C2.22168 11.0062 1.95312 10.5667 1.75781 10.0459C1.5625 9.52507 1.46484 8.94727 1.46484 8.3125C1.46484 7.67773 1.5625 7.09994 1.75781 6.5791C1.95312 6.05827 2.22168 5.61882 2.56348 5.26074C2.90527 4.90267 3.33659 4.6097 3.85742 4.38184C4.37826 4.15397 5.00488 4.04004 5.7373 4.04004ZM16.2354 12.0723L19.3848 12.707C20.1009 12.8535 20.52 12.764 20.6421 12.4385C20.7642 12.113 20.8252 11.8281 20.8252 11.584V5.04102C20.8252 4.60156 20.7642 4.2679 20.6421 4.04004C20.52 3.81218 20.1009 3.77148 19.3848 3.91797L16.2354 4.55273C15.8285 4.4388 15.1937 4.2679 14.3311 4.04004C13.4847 3.82845 12.5529 3.61279 11.5356 3.39307C10.5184 3.17334 9.48893 2.9821 8.44727 2.81934C7.4056 2.65658 6.50228 2.5752 5.7373 2.5752C4.82585 2.5752 4.01204 2.72982 3.2959 3.03906C2.57975 3.33203 1.97754 3.73893 1.48926 4.25977C1.00098 4.7806 0.634766 5.39095 0.390625 6.09082C0.130208 6.77441 0 7.51497 0 8.3125C0 9.4681 0.268555 10.5098 0.805664 11.4375C1.34277 12.3652 2.11589 13.057 3.125 13.5127V19.25C3.125 19.543 3.22673 19.7912 3.43018 19.9946C3.63363 20.1981 3.88184 20.2998 4.1748 20.2998H5.51758C5.51758 20.5277 5.52165 20.7474 5.52979 20.959C5.53792 21.1706 5.55013 21.374 5.56641 21.5693C5.58268 21.846 5.6193 22.1146 5.67627 22.375C5.73324 22.6354 5.82682 22.8877 5.95703 23.1318C6.25 23.6527 6.67725 24.027 7.23877 24.2549C7.80029 24.4827 8.50423 24.6211 9.35059 24.6699C9.9528 24.7025 10.7747 24.7147 11.8164 24.7065C12.8581 24.6984 13.8753 24.6862 14.8682 24.6699C15.3076 24.6699 15.7267 24.6699 16.1255 24.6699C16.5243 24.6699 16.8783 24.6699 17.1875 24.6699C17.6107 24.6699 18.042 24.6292 18.4814 24.5479C18.9209 24.4665 19.3278 24.32 19.7021 24.1084C20.0928 23.8968 20.4142 23.6038 20.6665 23.2295C20.9188 22.8551 21.0449 22.3994 21.0449 21.8623C21.0449 21.3089 20.9188 20.8451 20.6665 20.4707C20.4142 20.0964 20.0928 19.8034 19.7021 19.5918C19.3278 19.3802 18.9209 19.2337 18.4814 19.1523C18.042 19.071 17.6107 19.0303 17.1875 19.0303C16.7318 19.0303 16.2313 19.0506 15.686 19.0913C15.1408 19.132 14.6566 19.0221 14.2334 18.7617C14.0869 18.6803 13.9689 18.5745 13.8794 18.4443C13.7899 18.3141 13.7451 18.1432 13.7451 17.9316C13.7451 17.7363 13.7899 17.5736 13.8794 17.4434C13.9689 17.3132 14.0869 17.2074 14.2334 17.126C14.3962 17.012 14.563 16.9388 14.7339 16.9062C14.9048 16.8737 15.0309 16.8574 15.1123 16.8574H23.9502C24.1618 16.8574 24.3368 16.7842 24.4751 16.6377C24.6134 16.4912 24.6826 16.3203 24.6826 16.125C24.6826 15.9297 24.6134 15.7588 24.4751 15.6123C24.3368 15.4658 24.1618 15.3926 23.9502 15.3926H15.1123C14.917 15.3926 14.6729 15.4292 14.3799 15.5024C14.0869 15.5757 13.7939 15.6937 13.501 15.8564C13.1917 16.0518 12.911 16.3162 12.6587 16.6499C12.4064 16.9836 12.2803 17.4108 12.2803 17.9316C12.2803 18.4688 12.4064 18.9041 12.6587 19.2378C12.911 19.5715 13.1917 19.8359 13.501 20.0312C14.0381 20.3568 14.6322 20.5155 15.2832 20.5073C15.9342 20.4992 16.569 20.4951 17.1875 20.4951C17.5456 20.4951 17.8792 20.5277 18.1885 20.5928C18.4977 20.6579 18.7663 20.7474 18.9941 20.8613C19.1732 20.9753 19.3156 21.1095 19.4214 21.2642C19.5272 21.4188 19.5801 21.6182 19.5801 21.8623C19.5801 22.0902 19.5272 22.2855 19.4214 22.4482C19.3156 22.611 19.1732 22.7412 18.9941 22.8389C18.7663 22.9691 18.4977 23.0627 18.1885 23.1196C17.8792 23.1766 17.5456 23.2051 17.1875 23.2051C16.862 23.2051 16.4917 23.2091 16.0767 23.2173C15.6616 23.2254 15.2262 23.2295 14.7705 23.2295C13.7939 23.2295 12.8011 23.2336 11.792 23.2417C10.7829 23.2498 9.98535 23.2376 9.39941 23.2051C8.63444 23.1725 8.10547 23.0789 7.8125 22.9243C7.51953 22.7697 7.33236 22.611 7.25098 22.4482C7.18587 22.3343 7.13298 22.2 7.09229 22.0454C7.0516 21.8908 7.02311 21.6914 7.00684 21.4473C6.99056 21.2845 6.98242 21.1055 6.98242 20.9102C6.98242 20.7148 6.98242 20.5114 6.98242 20.2998H8.3252C8.61816 20.2998 8.86637 20.1981 9.06982 19.9946C9.27327 19.7912 9.375 19.543 9.375 19.25V13.6592C10.0749 13.529 10.7747 13.3906 11.4746 13.2441C12.1582 13.0977 12.8092 12.9512 13.4277 12.8047C14.0462 12.6582 14.5996 12.5199 15.0879 12.3896C15.5762 12.2594 15.9587 12.1536 16.2354 12.0723ZM19.3848 11.2178L17.0898 10.7539V5.87109L19.3848 5.40723V11.2178ZM4.58984 14.4648H7.91016V18.835H4.58984V14.4648ZM5.78613 9.875C5.62337 10.0052 5.53385 10.172 5.51758 10.3755C5.5013 10.5789 5.55827 10.7539 5.68848 10.9004C5.81869 11.0632 5.98551 11.1486 6.18896 11.1567C6.39242 11.1649 6.56738 11.1038 6.71387 10.9736L8.56934 9.38672C8.71582 9.25651 8.7972 9.09375 8.81348 8.89844C8.82975 8.70312 8.77279 8.52409 8.64258 8.36133C8.51237 8.21484 8.34554 8.13346 8.14209 8.11719C7.93864 8.10091 7.76367 8.15788 7.61719 8.28809L5.78613 9.875ZM3.61328 8.8252C3.48307 8.67871 3.42611 8.50374 3.44238 8.30029C3.45866 8.09684 3.54004 7.93001 3.68652 7.7998L5.54199 6.21289C5.68848 6.08268 5.86344 6.02165 6.06689 6.02979C6.27035 6.03792 6.43717 6.12337 6.56738 6.28613C6.69759 6.43262 6.75456 6.60759 6.73828 6.81104C6.72201 7.01449 6.64062 7.18132 6.49414 7.31152L4.63867 8.89844C4.49219 9.02865 4.31722 9.08561 4.11377 9.06934C3.91032 9.05306 3.74349 8.97168 3.61328 8.8252ZM22.9248 6.01758C22.7132 6.01758 22.5382 6.09082 22.3999 6.2373C22.2616 6.38379 22.1924 6.55469 22.1924 6.75C22.1924 6.94531 22.2616 7.11621 22.3999 7.2627C22.5382 7.40918 22.7132 7.48242 22.9248 7.48242H23.9502C24.1618 7.48242 24.3368 7.40918 24.4751 7.2627C24.6134 7.11621 24.6826 6.94531 24.6826 6.75C24.6826 6.55469 24.6134 6.38379 24.4751 6.2373C24.3368 6.09082 24.1618 6.01758 23.9502 6.01758H22.9248ZM22.1924 9.875C22.1924 9.67969 22.2616 9.50879 22.3999 9.36231C22.5382 9.21582 22.7132 9.14258 22.9248 9.14258H23.9502C24.1618 9.14258 24.3368 9.21582 24.4751 9.36231C24.6134 9.50879 24.6826 9.67969 24.6826 9.875C24.6826 10.0703 24.6134 10.2412 24.4751 10.3877C24.3368 10.5342 24.1618 10.6074 23.9502 10.6074H22.9248C22.7132 10.6074 22.5382 10.5342 22.3999 10.3877C22.2616 10.2412 22.1924 10.0703 22.1924 9.875Z" fill="black"/>
</svg>
