<svg width="25" height="26" viewBox="0 0 25 26" fill="none" xmlns="http://www.w3.org/2000/svg">
<path d="M14.8193 17.2969C14.5264 17.0039 14.1805 16.772 13.7817 16.6011C13.383 16.4302 12.9557 16.3447 12.5 16.3447C12.0443 16.3447 11.617 16.4302 11.2183 16.6011C10.8195 16.772 10.4736 17.0039 10.1807 17.2969C9.8877 17.5898 9.65576 17.9357 9.48486 18.3345C9.31396 18.7332 9.22852 19.1605 9.22852 19.6162C9.22852 20.0557 9.31396 20.4748 9.48486 20.8735C9.65576 21.2723 9.8877 21.6182 10.1807 21.9111C10.5062 22.2367 10.8683 22.4808 11.2671 22.6436C11.6659 22.8063 12.0768 22.8877 12.5 22.8877C12.9232 22.8877 13.3341 22.8063 13.7329 22.6436C14.1317 22.4808 14.4938 22.2367 14.8193 21.9111C15.1123 21.6182 15.3442 21.2723 15.5151 20.8735C15.686 20.4748 15.7715 20.0557 15.7715 19.6162C15.7715 19.1605 15.686 18.7332 15.5151 18.3345C15.3442 17.9357 15.1123 17.5898 14.8193 17.2969ZM13.7451 20.8613C13.4033 21.2031 12.9883 21.374 12.5 21.374C12.0117 21.374 11.5967 21.2031 11.2549 20.8613C11.0921 20.6986 10.966 20.5114 10.8765 20.2998C10.7869 20.0882 10.7422 19.8604 10.7422 19.6162C10.7422 19.3721 10.7869 19.1401 10.8765 18.9204C10.966 18.7007 11.0921 18.5176 11.2549 18.3711C11.4176 18.1921 11.6089 18.0618 11.8286 17.9805C12.0483 17.8991 12.2721 17.8584 12.5 17.8584C12.7279 17.8584 12.9517 17.8991 13.1714 17.9805C13.3911 18.0618 13.5824 18.1921 13.7451 18.3711C14.0869 18.7129 14.2578 19.1279 14.2578 19.6162C14.2578 20.1045 14.0869 20.5195 13.7451 20.8613ZM20.0684 12.3896C19.0267 11.348 17.8467 10.5667 16.5283 10.0459C15.21 9.52507 13.8672 9.26465 12.5 9.26465C11.1328 9.26465 9.79004 9.52507 8.47168 10.0459C7.15332 10.5667 5.97331 11.348 4.93164 12.3896C4.86654 12.4548 4.81364 12.5321 4.77295 12.6216C4.73226 12.7111 4.71191 12.8128 4.71191 12.9268C4.71191 13.0244 4.73226 13.118 4.77295 13.2075C4.81364 13.297 4.86654 13.3743 4.93164 13.4395L7.25098 15.7588C7.31608 15.8239 7.39339 15.8768 7.48291 15.9175C7.57243 15.9582 7.66602 15.9785 7.76367 15.9785C7.8776 15.9785 7.97933 15.9582 8.06885 15.9175C8.15837 15.8768 8.23568 15.8239 8.30078 15.7588C8.83789 15.2217 9.46452 14.7985 10.1807 14.4893C10.8968 14.18 11.6618 14.0254 12.4756 14.0254C12.4756 14.0254 12.4797 14.0254 12.4878 14.0254C12.4959 14.0254 12.5 14.0254 12.5 14.0254C13.2975 14.0254 14.0544 14.1759 14.7705 14.4771C15.4867 14.7782 16.1296 15.2054 16.6992 15.7588C16.7643 15.8239 16.8416 15.8768 16.9312 15.9175C17.0207 15.9582 17.1224 15.9785 17.2363 15.9785C17.334 15.9785 17.4276 15.9582 17.5171 15.9175C17.6066 15.8768 17.6839 15.8239 17.749 15.7588L20.0684 13.4395C20.1335 13.3743 20.1864 13.297 20.2271 13.2075C20.2677 13.118 20.2881 13.0244 20.2881 12.9268C20.2881 12.8128 20.2677 12.7111 20.2271 12.6216C20.1864 12.5321 20.1335 12.4548 20.0684 12.3896ZM17.1875 14.1719C16.569 13.651 15.861 13.2441 15.0635 12.9512C14.266 12.6582 13.4196 12.5117 12.5244 12.5117C12.5244 12.5117 12.5203 12.5117 12.5122 12.5117C12.5041 12.5117 12.5 12.5117 12.5 12.5117C12.5 12.5117 12.4959 12.5117 12.4878 12.5117C12.4797 12.5117 12.4756 12.5117 12.4756 12.5117C11.5804 12.5117 10.734 12.6623 9.93652 12.9634C9.139 13.2645 8.42285 13.6755 7.78809 14.1963L7.8125 14.1719L6.56738 12.9268C7.41374 12.2106 8.34961 11.6735 9.375 11.3154C10.4004 10.9411 11.4421 10.7539 12.5 10.7539C13.5579 10.7539 14.5996 10.9411 15.625 11.3154C16.6504 11.6735 17.5863 12.2106 18.4326 12.9268L17.1875 14.1719ZM24.7803 7.67773C23.999 6.88021 23.1445 6.1722 22.2168 5.55371C21.2891 4.91895 20.3084 4.38184 19.2749 3.94238C18.2414 3.50293 17.1631 3.16927 16.04 2.94141C14.9007 2.69727 13.737 2.5752 12.5488 2.5752C12.5326 2.5752 12.5203 2.5752 12.5122 2.5752C12.5041 2.5752 12.5 2.5752 12.5 2.5752C12.5 2.5752 12.4959 2.5752 12.4878 2.5752C12.4797 2.5752 12.4674 2.5752 12.4512 2.5752C11.263 2.5752 10.0993 2.69727 8.95996 2.94141C7.83691 3.16927 6.75863 3.50293 5.7251 3.94238C4.69157 4.38184 3.71094 4.91895 2.7832 5.55371C1.85547 6.1722 1.00098 6.88021 0.219727 7.67773C0.154622 7.74284 0.101725 7.82015 0.0610352 7.90967C0.0203451 7.99919 0 8.10091 0 8.21484C0 8.3125 0.0203451 8.40609 0.0610352 8.49561C0.101725 8.58512 0.154622 8.66243 0.219727 8.72754L2.53906 11.0469C2.60417 11.112 2.68148 11.1649 2.771 11.2056C2.86051 11.2463 2.9541 11.2666 3.05176 11.2666C3.16569 11.2666 3.26742 11.2463 3.35693 11.2056C3.44645 11.1649 3.52376 11.112 3.58887 11.0469C4.82585 9.8099 6.21745 8.8903 7.76367 8.28809C9.3099 7.6696 10.8887 7.36035 12.5 7.36035C14.1113 7.36035 15.6901 7.6696 17.2363 8.28809C18.7826 8.8903 20.1742 9.8099 21.4111 11.0469C21.4762 11.112 21.5535 11.1649 21.6431 11.2056C21.7326 11.2463 21.8343 11.2666 21.9482 11.2666C22.0459 11.2666 22.1395 11.2463 22.229 11.2056C22.3185 11.1649 22.3958 11.112 22.4609 11.0469L24.7803 8.72754C24.8454 8.66243 24.8983 8.58512 24.939 8.49561C24.9797 8.40609 25 8.3125 25 8.21484C25 8.10091 24.9797 7.99919 24.939 7.90967C24.8983 7.82015 24.8454 7.74284 24.7803 7.67773ZM21.9238 9.45996C20.5892 8.25553 19.1081 7.35221 17.4805 6.75C15.8529 6.14779 14.1927 5.84668 12.5 5.84668C10.8073 5.84668 9.14714 6.14779 7.51953 6.75C5.89193 7.35221 4.41081 8.25553 3.07617 9.45996L1.83105 8.21484C2.53092 7.58008 3.28776 7.01042 4.10156 6.50586C4.89909 5.98503 5.74951 5.54964 6.65283 5.19971C7.55615 4.84977 8.48796 4.57715 9.44824 4.38184C10.4248 4.18652 11.4258 4.08887 12.4512 4.08887C12.4674 4.08887 12.4797 4.08887 12.4878 4.08887C12.4959 4.08887 12.5 4.08887 12.5 4.08887C13.4928 4.08887 14.4694 4.17838 15.4297 4.35742C16.39 4.53646 17.3218 4.80094 18.2251 5.15088C19.1284 5.50081 19.9951 5.9362 20.8252 6.45703C21.6553 6.96159 22.4365 7.54753 23.1689 8.21484L21.9238 9.45996Z" fill="black"/>
</svg>
