<svg width="25" height="26" viewBox="0 0 25 26" fill="none" xmlns="http://www.w3.org/2000/svg">
<path d="M5.2002 1.5498C4.63053 1.5498 4.14225 1.75326 3.73535 2.16016C3.32845 2.56706 3.125 3.05534 3.125 3.625V4.6748H2.0752C2.0752 4.38184 1.97347 4.13363 1.77002 3.93018C1.56657 3.72672 1.3265 3.625 1.0498 3.625C0.756836 3.625 0.508626 3.72672 0.305176 3.93018C0.101725 4.13363 0 4.38184 0 4.6748V8.8252C0 9.11816 0.101725 9.36637 0.305176 9.56982C0.508626 9.77327 0.756836 9.875 1.0498 9.875C1.3265 9.875 1.56657 9.77327 1.77002 9.56982C1.97347 9.36637 2.0752 9.11816 2.0752 8.8252H3.125V14.0498C3.125 14.6195 3.32845 15.1077 3.73535 15.5146C4.14225 15.9215 4.63053 16.125 5.2002 16.125H6.25V21.3252C6.25 21.9111 6.45345 22.4076 6.86035 22.8145C7.26725 23.2214 7.75553 23.4248 8.3252 23.4248H18.75C19.3197 23.4248 19.8079 23.2214 20.2148 22.8145C20.6217 22.4076 20.8252 21.9111 20.8252 21.3252V8.8252H21.875C22.4447 8.8252 22.9329 8.62175 23.3398 8.21484C23.7467 7.80794 23.9502 7.31966 23.9502 6.75C23.9502 6.18034 23.7467 5.69206 23.3398 5.28516C22.9329 4.87826 22.4447 4.6748 21.875 4.6748H20.8252V3.625C20.8252 3.05534 20.6217 2.56706 20.2148 2.16016C19.8079 1.75326 19.3197 1.5498 18.75 1.5498H5.2002ZM8.3252 2.99023H18.75C18.929 2.99023 19.0796 3.05127 19.2017 3.17334C19.3237 3.29541 19.3848 3.44596 19.3848 3.625V17.5166C18.9779 17.5654 18.6117 17.6305 18.2861 17.7119C17.9606 17.7933 17.6432 17.8747 17.334 17.9561C17.3014 17.9723 17.2648 17.9845 17.2241 17.9927C17.1834 18.0008 17.1468 18.013 17.1143 18.0293C16.6748 18.1595 16.1865 18.2734 15.6494 18.3711C15.1123 18.4688 14.4124 18.5176 13.5498 18.5176C12.6872 18.5176 12.0402 18.4688 11.6089 18.3711C11.1776 18.2734 10.7747 18.1676 10.4004 18.0537L10.376 18.0293C10.0342 17.9154 9.6639 17.8096 9.26514 17.7119C8.86637 17.6143 8.34961 17.5492 7.71484 17.5166V3.625C7.71484 3.44596 7.77588 3.29541 7.89795 3.17334C8.02002 3.05127 8.16243 2.99023 8.3252 2.99023ZM7.71484 18.957C8.23568 18.9896 8.65885 19.0506 8.98438 19.1401C9.3099 19.2297 9.61914 19.3232 9.91211 19.4209H9.93652C10.3434 19.5674 10.8073 19.6976 11.3281 19.8115C11.849 19.9255 12.5895 19.9824 13.5498 19.9824C14.4938 19.9824 15.271 19.9255 15.8813 19.8115C16.4917 19.6976 17.041 19.5674 17.5293 19.4209C17.5618 19.4209 17.5944 19.4128 17.627 19.3965C17.6595 19.3802 17.7002 19.3721 17.749 19.3721C18.0257 19.2907 18.2902 19.2174 18.5425 19.1523C18.7948 19.0872 19.0755 19.0303 19.3848 18.9814V21.3252C19.3848 21.5042 19.3237 21.6548 19.2017 21.7769C19.0796 21.8989 18.929 21.96 18.75 21.96H8.3252C8.16243 21.96 8.02002 21.8989 7.89795 21.7769C7.77588 21.6548 7.71484 21.5042 7.71484 21.3252V18.957ZM4.58984 4.6748V4.1377C4.58984 3.97494 4.63867 3.76335 4.73633 3.50293C4.83398 3.24251 5.07812 3.1123 5.46875 3.1123C5.5013 3.1123 5.49723 3.1123 5.45654 3.1123C5.41585 3.1123 5.41992 3.1123 5.46875 3.1123C5.85938 3.1123 6.08724 3.25472 6.15234 3.53955C6.21745 3.82438 6.25 4.02376 6.25 4.1377V4.6748H4.58984ZM6.25 8.8252V14.6602H5.2002C5.03744 14.6602 4.89502 14.5991 4.77295 14.4771C4.65088 14.355 4.58984 14.2126 4.58984 14.0498V8.8252H6.25ZM2.0752 7.38477V6.11523H5.83496V7.38477H2.0752ZM20.8252 7.38477V6.11523H21.875C22.054 6.11523 22.2046 6.17627 22.3267 6.29834C22.4487 6.42041 22.5098 6.57096 22.5098 6.75C22.5098 6.92904 22.4487 7.07959 22.3267 7.20166C22.2046 7.32373 22.054 7.38477 21.875 7.38477H20.8252Z" fill="black"/>
</svg>
