<svg width="25" height="26" viewBox="0 0 25 26" fill="none" xmlns="http://www.w3.org/2000/svg">
<path d="M21.8506 3.1123H3.14941C2.28678 3.1123 1.54622 3.41748 0.927734 4.02783C0.309245 4.63818 0 5.38281 0 6.26172V13.3418C0 14.2044 0.309245 14.945 0.927734 15.5635C1.54622 16.182 2.28678 16.4912 3.14941 16.4912H21.8506C22.7132 16.4912 23.4538 16.182 24.0723 15.5635C24.6908 14.945 25 14.2044 25 13.3418V6.26172C25 5.38281 24.6908 4.63818 24.0723 4.02783C23.4538 3.41748 22.7132 3.1123 21.8506 3.1123ZM19.4336 15.002H5.56641V14.7822C5.56641 14.3265 5.7251 13.9399 6.04248 13.6226C6.35986 13.3052 6.74642 13.1465 7.20215 13.1465H17.7979C18.2536 13.1465 18.6401 13.3052 18.9575 13.6226C19.2749 13.9399 19.4336 14.3265 19.4336 14.7822V15.002ZM23.5352 13.3418C23.5352 13.7975 23.3683 14.1882 23.0347 14.5137C22.701 14.8392 22.3063 15.002 21.8506 15.002H20.9229V14.7822C20.9229 13.9196 20.6177 13.1831 20.0073 12.5728C19.397 11.9624 18.6605 11.6572 17.7979 11.6572H7.20215C6.33952 11.6572 5.60303 11.9624 4.99268 12.5728C4.38232 13.1831 4.07715 13.9196 4.07715 14.7822V15.002H3.14941C2.69368 15.002 2.29899 14.8392 1.96533 14.5137C1.63167 14.1882 1.46484 13.7975 1.46484 13.3418V6.26172C1.46484 5.78971 1.63167 5.39095 1.96533 5.06543C2.29899 4.73991 2.69368 4.57715 3.14941 4.57715H21.8506C22.3063 4.57715 22.6969 4.73991 23.0225 5.06543C23.348 5.39095 23.5107 5.78971 23.5107 6.26172V13.3418H23.5352ZM20.9717 5.91992H20.0195C19.8242 5.91992 19.6574 5.99316 19.519 6.13965C19.3807 6.28613 19.3115 6.45703 19.3115 6.65234C19.3115 6.84766 19.3807 7.01855 19.519 7.16504C19.6574 7.31152 19.8242 7.38477 20.0195 7.38477H20.9717C21.167 7.38477 21.3338 7.31152 21.4722 7.16504C21.6105 7.01855 21.6797 6.84766 21.6797 6.65234C21.6797 6.45703 21.6105 6.28613 21.4722 6.13965C21.3338 5.99316 21.167 5.91992 20.9717 5.91992ZM17.4316 5.91992H16.4795C16.2842 5.91992 16.1173 5.99316 15.979 6.13965C15.8407 6.28613 15.7715 6.45703 15.7715 6.65234C15.7715 6.84766 15.8407 7.01855 15.979 7.16504C16.1173 7.31152 16.2842 7.38477 16.4795 7.38477H17.4316C17.627 7.38477 17.7938 7.31152 17.9321 7.16504C18.0705 7.01855 18.1396 6.84766 18.1396 6.65234C18.1396 6.45703 18.0705 6.28613 17.9321 6.13965C17.7938 5.99316 17.627 5.91992 17.4316 5.91992ZM12.5 17.2236C12.2884 17.2236 12.1134 17.2969 11.9751 17.4434C11.8368 17.5898 11.7676 17.7689 11.7676 17.9805V21.4473C11.7676 21.6426 11.8368 21.8135 11.9751 21.96C12.1134 22.1064 12.2884 22.1797 12.5 22.1797C12.7116 22.1797 12.8866 22.1064 13.0249 21.96C13.1632 21.8135 13.2324 21.6426 13.2324 21.4473V17.9805C13.2324 17.7689 13.1632 17.5898 13.0249 17.4434C12.8866 17.2969 12.7116 17.2236 12.5 17.2236ZM16.7725 20.7148C16.4307 20.7148 16.1377 20.5928 15.8936 20.3486C15.6494 20.1045 15.5273 19.8115 15.5273 19.4697V17.9805C15.5273 17.7852 15.4541 17.6183 15.3076 17.48C15.1611 17.3416 14.9902 17.2725 14.7949 17.2725C14.5996 17.2725 14.4287 17.3416 14.2822 17.48C14.1357 17.6183 14.0625 17.7852 14.0625 17.9805V19.4697C14.0625 20.2184 14.327 20.8573 14.856 21.3862C15.3849 21.9152 16.0238 22.1797 16.7725 22.1797C16.984 22.1797 17.1549 22.1064 17.2852 21.96C17.4154 21.8135 17.4805 21.6426 17.4805 21.4473C17.4805 21.252 17.4154 21.0811 17.2852 20.9346C17.1549 20.7881 16.984 20.7148 16.7725 20.7148ZM10.2051 17.2236C9.99349 17.2236 9.81445 17.2969 9.66797 17.4434C9.52148 17.5898 9.44824 17.7689 9.44824 17.9805V19.4697C9.44824 19.8115 9.33024 20.1045 9.09424 20.3486C8.85824 20.5928 8.56934 20.7148 8.22754 20.7148C8.01595 20.7148 7.84505 20.7881 7.71484 20.9346C7.58464 21.0811 7.51953 21.252 7.51953 21.4473C7.51953 21.6426 7.58464 21.8135 7.71484 21.96C7.84505 22.1064 8.01595 22.1797 8.22754 22.1797C8.97624 22.1797 9.61507 21.9152 10.144 21.3862C10.673 20.8573 10.9375 20.2184 10.9375 19.4697V17.9805C10.9375 17.7689 10.8643 17.5939 10.7178 17.4556C10.5713 17.3172 10.4004 17.2399 10.2051 17.2236Z" fill="black"/>
</svg>
