<svg width="25" height="26" viewBox="0 0 25 26" fill="none" xmlns="http://www.w3.org/2000/svg">
<path d="M24.2676 2.0625H0.732422C0.537109 2.0625 0.366211 2.13574 0.219727 2.28223C0.0732422 2.42871 0 2.59961 0 2.79492V18.7373C0 18.9326 0.0732422 19.1035 0.219727 19.25C0.366211 19.3965 0.537109 19.4697 0.732422 19.4697H8.93555V21.7891H6.20117C5.98958 21.7891 5.81055 21.8582 5.66406 21.9966C5.51758 22.1349 5.44434 22.3099 5.44434 22.5215C5.44434 22.7331 5.51758 22.908 5.66406 23.0464C5.81055 23.1847 5.98958 23.2539 6.20117 23.2539H18.7988C19.0104 23.2539 19.1895 23.1847 19.3359 23.0464C19.4824 22.908 19.5557 22.7331 19.5557 22.5215C19.5557 22.3099 19.4824 22.1349 19.3359 21.9966C19.1895 21.8582 19.0104 21.7891 18.7988 21.7891H16.0645V19.4697H24.2676C24.4629 19.4697 24.6338 19.3965 24.7803 19.25C24.9268 19.1035 25 18.9326 25 18.7373V2.79492C25 2.59961 24.9268 2.42871 24.7803 2.28223C24.6338 2.13574 24.4629 2.0625 24.2676 2.0625ZM14.5996 21.7891H10.4248V19.4697H14.5996V21.7891ZM23.5107 17.9805H1.48926V16.7109H23.5107V17.9805ZM23.5107 15.2217H1.48926V3.55176H23.5107V15.2217Z" fill="black"/>
</svg>
