<svg width="25" height="25" viewBox="0 0 25 25" fill="none" xmlns="http://www.w3.org/2000/svg">
<path d="M8.30078 8.37402C8.2194 8.55306 8.08512 8.6792 7.89795 8.75244C7.71077 8.82568 7.52767 8.82161 7.34863 8.74023L5.93262 8.12988C5.7373 8.0485 5.60303 7.91423 5.52979 7.72705C5.45654 7.53988 5.46061 7.34863 5.54199 7.15332C5.62337 6.97428 5.75765 6.84814 5.94482 6.7749C6.132 6.70166 6.3151 6.70573 6.49414 6.78711L7.93457 7.39746C8.11361 7.47884 8.23975 7.61312 8.31299 7.80029C8.38623 7.98747 8.38216 8.17871 8.30078 8.37402ZM18.0176 8.78906C17.8223 8.78906 17.6514 8.71989 17.5049 8.58154C17.3584 8.4432 17.2852 8.26823 17.2852 8.05664V6.90918C17.2852 6.69759 17.3584 6.52262 17.5049 6.38428C17.6514 6.24593 17.8223 6.17676 18.0176 6.17676C18.2129 6.17676 18.3838 6.24593 18.5303 6.38428C18.6768 6.52262 18.75 6.69759 18.75 6.90918V8.05664C18.75 8.26823 18.6768 8.4432 18.5303 8.58154C18.3838 8.71989 18.2129 8.78906 18.0176 8.78906ZM5.54199 12.915C5.63965 13.0941 5.66406 13.2812 5.61523 13.4766C5.56641 13.6719 5.46061 13.8184 5.29785 13.916L4.37012 14.5996C4.19108 14.6973 4.00391 14.7217 3.80859 14.6729C3.61328 14.624 3.4668 14.5182 3.36914 14.3555C3.25521 14.1764 3.22266 13.9893 3.27148 13.7939C3.32031 13.5986 3.43424 13.4521 3.61328 13.3545L4.54102 12.6709C4.72005 12.5732 4.90723 12.5488 5.10254 12.5977C5.29785 12.6465 5.44434 12.7523 5.54199 12.915ZM19.7021 13.4521C19.4906 13.4684 19.3197 13.5498 19.1895 13.6963C19.0592 13.8428 19.0023 14.0218 19.0186 14.2334C19.0348 14.4287 19.1162 14.5915 19.2627 14.7217C19.4092 14.8519 19.5801 14.917 19.7754 14.917L20.9229 14.7461C21.1182 14.7298 21.285 14.6444 21.4233 14.4897C21.5617 14.3351 21.6227 14.1602 21.6064 13.9648C21.5902 13.7695 21.5088 13.6027 21.3623 13.4644C21.2158 13.326 21.0368 13.265 20.8252 13.2812L19.7021 13.4521ZM7.54395 19.4824C7.08822 19.3685 6.72201 19.2098 6.44531 19.0063C6.16862 18.8029 6.16048 18.4245 6.4209 17.8711L11.499 7.25098C11.32 7.08822 11.1776 6.8929 11.0718 6.66504C10.966 6.43717 10.9131 6.19303 10.9131 5.93262C10.9131 5.44434 11.084 5.0293 11.4258 4.6875C11.7676 4.3457 12.1826 4.1748 12.6709 4.1748C13.1592 4.1748 13.5783 4.3457 13.9282 4.6875C14.2782 5.0293 14.4531 5.44434 14.4531 5.93262C14.4531 6.19303 14.4002 6.43717 14.2944 6.66504C14.1886 6.8929 14.0381 7.08822 13.8428 7.25098L18.9209 17.8711C19.1813 18.4082 19.1732 18.7826 18.8965 18.9941C18.6198 19.2057 18.335 19.3522 18.042 19.4336C17.5049 19.5638 16.7928 19.6899 15.9058 19.812C15.0187 19.9341 13.9404 19.9951 12.6709 19.9951C11.499 19.9951 10.4899 19.9422 9.64355 19.8364C8.7972 19.7306 8.09733 19.6126 7.54395 19.4824ZM11.4258 10.8643C12.0443 11.6781 12.7075 12.3128 13.4155 12.7686C14.1235 13.2243 14.7705 13.5579 15.3564 13.7695C14.9333 12.9069 14.5142 12.0402 14.0991 11.1694C13.6841 10.2987 13.2487 9.39128 12.793 8.44727H12.5488C12.3861 8.77279 12.2111 9.14307 12.0239 9.55811C11.8368 9.97314 11.6374 10.4085 11.4258 10.8643ZM10.7666 12.2559C10.6038 12.6302 10.437 13.0046 10.2661 13.3789C10.0952 13.7533 9.93652 14.1113 9.79004 14.4531C10.1969 14.8763 10.6689 15.2913 11.2061 15.6982C11.7269 16.1214 12.2965 16.4998 12.915 16.8335C13.5335 17.1672 14.1764 17.4398 14.8438 17.6514C15.5273 17.863 16.2354 17.985 16.9678 18.0176C17.0654 17.9688 17.1387 17.9118 17.1875 17.8467C17.2363 17.7816 17.2445 17.7165 17.2119 17.6514C17.0492 17.3258 16.8945 17.0044 16.748 16.687C16.6016 16.3696 16.4551 16.0563 16.3086 15.7471C15.2669 15.4541 14.2537 15.0065 13.269 14.4043C12.2843 13.8021 11.4502 13.0859 10.7666 12.2559ZM13.0127 18.5303C12.2803 18.2048 11.613 17.8467 11.0107 17.4561C10.4085 17.0654 9.7819 16.5365 9.13086 15.8691C8.91927 16.3411 8.74837 16.7196 8.61816 17.0044C8.48796 17.2892 8.42285 17.4316 8.42285 17.4316C8.30892 17.6595 8.28451 17.8426 8.34961 17.981C8.41471 18.1193 8.55306 18.2048 8.76465 18.2373C9.25293 18.3187 9.82259 18.3879 10.4736 18.4448C11.1247 18.5018 11.8571 18.5303 12.6709 18.5303C12.7197 18.5303 12.7686 18.5303 12.8174 18.5303C12.8662 18.5303 12.9313 18.5303 13.0127 18.5303ZM12.3535 5.93262C12.3535 6.03027 12.3861 6.10758 12.4512 6.16455C12.5163 6.22152 12.5895 6.25 12.6709 6.25C12.7686 6.25 12.8459 6.22152 12.9028 6.16455C12.9598 6.10758 12.9883 6.03027 12.9883 5.93262C12.9883 5.85124 12.9598 5.77799 12.9028 5.71289C12.8459 5.64779 12.7686 5.61523 12.6709 5.61523C12.5895 5.61523 12.5163 5.64779 12.4512 5.71289C12.3861 5.77799 12.3535 5.85124 12.3535 5.93262ZM25 12.5C25 10.7747 24.6745 9.15527 24.0234 7.6416C23.3724 6.11165 22.4813 4.78109 21.3501 3.6499C20.2189 2.51872 18.8883 1.6276 17.3584 0.976562C15.8447 0.325521 14.2253 0 12.5 0C10.7747 0 9.15527 0.325521 7.6416 0.976562C6.11165 1.6276 4.78109 2.51872 3.6499 3.6499C2.51872 4.78109 1.6276 6.11165 0.976562 7.6416C0.325521 9.15527 0 10.7747 0 12.5C0 14.2253 0.325521 15.8447 0.976562 17.3584C1.6276 18.8883 2.51872 20.2189 3.6499 21.3501C4.78109 22.4813 6.11165 23.3724 7.6416 24.0234C9.15527 24.6745 10.7747 25 12.5 25C14.2253 25 15.8447 24.6745 17.3584 24.0234C18.8883 23.3724 20.2189 22.4813 21.3501 21.3501C22.4813 20.2189 23.3724 18.8883 24.0234 17.3584C24.6745 15.8447 25 14.2253 25 12.5ZM23.4375 12.5C23.4375 14.0137 23.1527 15.4297 22.583 16.748C22.0133 18.0827 21.2321 19.2464 20.2393 20.2393C19.2464 21.2321 18.0827 22.0133 16.748 22.583C15.4297 23.1527 14.0137 23.4375 12.5 23.4375C10.9863 23.4375 9.57031 23.1527 8.25195 22.583C6.91732 22.0133 5.75358 21.2321 4.76074 20.2393C3.7679 19.2464 2.98665 18.0827 2.41699 16.748C1.84733 15.4297 1.5625 14.0137 1.5625 12.5C1.5625 10.9863 1.84733 9.57031 2.41699 8.25195C2.98665 6.91732 3.7679 5.75358 4.76074 4.76074C5.75358 3.7679 6.91732 2.98665 8.25195 2.41699C9.57031 1.84733 10.9863 1.5625 12.5 1.5625C14.0137 1.5625 15.4297 1.84733 16.748 2.41699C18.0827 2.98665 19.2464 3.7679 20.2393 4.76074C21.2321 5.75358 22.0133 6.91732 22.583 8.25195C23.1527 9.57031 23.4375 10.9863 23.4375 12.5Z" fill="black"/>
</svg>
