<svg width="25" height="25" viewBox="0 0 25 25" fill="none" xmlns="http://www.w3.org/2000/svg">
<path d="M25 12.5C25 14.2253 24.6745 15.8447 24.0234 17.3584C23.3724 18.8883 22.4813 20.2189 21.3501 21.3501C20.2189 22.4813 18.8883 23.3724 17.3584 24.0234C15.8447 24.6745 14.2253 25 12.5 25C10.7747 25 9.15527 24.6745 7.6416 24.0234C6.11165 23.3724 4.78109 22.4813 3.6499 21.3501C2.51872 20.2189 1.6276 18.8883 0.976562 17.3584C0.325521 15.8447 0 14.2253 0 12.5C0 10.7747 0.325521 9.15527 0.976562 7.6416C1.6276 6.11165 2.51872 4.78109 3.6499 3.6499C4.78109 2.51872 6.11165 1.6276 7.6416 0.976562C9.15527 0.325521 10.7747 0 12.5 0C14.2253 0 15.8447 0.325521 17.3584 0.976562C18.8883 1.6276 20.2189 2.51872 21.3501 3.6499C22.4813 4.78109 23.3724 6.11165 24.0234 7.6416C24.6745 9.15527 25 10.7747 25 12.5ZM12.5 23.3398C13.9974 23.3398 15.4053 23.055 16.7236 22.4854C18.042 21.9157 19.1895 21.1426 20.166 20.166C21.1426 19.1895 21.9157 18.042 22.4854 16.7236C23.055 15.4053 23.3398 13.9974 23.3398 12.5C23.3398 11.1491 23.1079 9.87142 22.644 8.66699C22.1802 7.46256 21.5413 6.38835 20.7275 5.44434L15.7959 10.4004L19.165 17.4561C19.4417 18.0257 19.4336 18.4245 19.1406 18.6523C18.8477 18.8802 18.5465 19.0348 18.2373 19.1162C17.6514 19.2627 16.8823 19.401 15.9302 19.5312C14.978 19.6615 13.8346 19.7266 12.5 19.7266C11.2467 19.7266 10.1644 19.6696 9.25293 19.5557C8.34147 19.4417 7.59277 19.3115 7.00684 19.165L5.44434 20.7275C6.38835 21.5413 7.46256 22.1802 8.66699 22.644C9.87142 23.1079 11.141 23.3398 12.4756 23.3398C12.4756 23.3398 12.4797 23.3398 12.4878 23.3398C12.4959 23.3398 12.5 23.3398 12.5 23.3398ZM8.3252 17.8467C8.84603 17.9281 9.45231 18.0013 10.144 18.0664C10.8358 18.1315 11.6211 18.1641 12.5 18.1641C12.6628 18.1641 12.8255 18.1641 12.9883 18.1641C13.151 18.1641 13.3057 18.1641 13.4521 18.1641C12.8011 17.985 12.1541 17.7612 11.5112 17.4927C10.8683 17.2241 10.2539 16.8945 9.66797 16.5039L8.3252 17.8467ZM17.334 17.2119L16.2109 14.8926C15.5924 14.6647 15.0065 14.4124 14.4531 14.1357C13.8997 13.859 13.3708 13.5498 12.8662 13.208L12.915 13.2568L10.791 15.3809C11.7513 15.9505 12.7848 16.3778 13.8916 16.6626C14.9984 16.9474 16.1458 17.1305 17.334 17.2119ZM15.21 12.7686L14.624 11.5479L14.0625 12.1338C14.2415 12.2477 14.4287 12.3576 14.624 12.4634C14.8193 12.5692 15.0146 12.6709 15.21 12.7686ZM15.0391 8.78906L19.5557 4.27246C18.6117 3.45866 17.5374 2.81982 16.333 2.35596C15.1286 1.89209 13.859 1.66016 12.5244 1.66016C12.5081 1.66016 12.5 1.66016 12.5 1.66016C11.0026 1.66016 9.59473 1.94499 8.27637 2.51465C6.95801 3.08431 5.81055 3.85742 4.83398 4.83398C3.85742 5.81055 3.08431 6.95801 2.51465 8.27637C1.94499 9.59473 1.66016 11.0026 1.66016 12.5C1.66016 13.8509 1.89209 15.1286 2.35596 16.333C2.81982 17.5374 3.45866 18.6117 4.27246 19.5557L5.66406 18.1641C5.64779 18.0664 5.65592 17.9565 5.68848 17.8345C5.72103 17.7124 5.76986 17.5863 5.83496 17.4561L11.2549 6.12793C11.0596 5.96517 10.9049 5.76172 10.791 5.51758C10.6771 5.27344 10.6201 5.01302 10.6201 4.73633C10.6201 4.19922 10.8032 3.74756 11.1694 3.38135C11.5356 3.01514 11.9792 2.83203 12.5 2.83203C13.0208 2.83203 13.4644 3.01514 13.8306 3.38135C14.1968 3.74756 14.3799 4.19922 14.3799 4.73633C14.3799 5.01302 14.3229 5.27344 14.209 5.51758C14.0951 5.76172 13.9404 5.96517 13.7451 6.12793L15.0391 8.78906ZM13.8672 9.96094L12.6221 7.39746H12.3779L11.3037 9.64355V9.66797C11.5153 9.92839 11.735 10.1807 11.9629 10.4248C12.1908 10.6689 12.4349 10.9049 12.6953 11.1328L13.8672 9.96094ZM10.5469 11.1816L9.13086 14.1357C9.17969 14.1846 9.22852 14.2293 9.27734 14.27C9.32617 14.3107 9.375 14.3555 9.42383 14.4043L11.5967 12.2314C11.4176 12.0687 11.2386 11.9019 11.0596 11.731C10.8805 11.5601 10.7096 11.377 10.5469 11.1816ZM12.1582 4.71191C12.1582 4.80957 12.1908 4.89095 12.2559 4.95605C12.321 5.02116 12.4023 5.05371 12.5 5.05371C12.5977 5.05371 12.679 5.02116 12.7441 4.95605C12.8092 4.89095 12.8418 4.80957 12.8418 4.71191C12.8418 4.63053 12.8092 4.55729 12.7441 4.49219C12.679 4.42708 12.5977 4.39453 12.5 4.39453C12.4023 4.39453 12.321 4.42708 12.2559 4.49219C12.1908 4.55729 12.1582 4.63053 12.1582 4.71191ZM19.7266 10.791C19.8079 10.6934 19.9015 10.612 20.0073 10.5469C20.1131 10.4818 20.2393 10.4492 20.3857 10.4492C20.4671 10.4492 20.5444 10.4614 20.6177 10.4858C20.6909 10.5103 20.7601 10.5469 20.8252 10.5957L21.8262 11.3037C21.9238 11.3851 22.0011 11.4787 22.0581 11.5845C22.1151 11.6903 22.1436 11.8083 22.1436 11.9385C22.1436 12.1501 22.0703 12.3332 21.9238 12.4878C21.7773 12.6424 21.5902 12.7197 21.3623 12.7197C21.2972 12.7197 21.228 12.7075 21.1548 12.6831C21.0815 12.6587 21.0124 12.6221 20.9473 12.5732L19.9219 11.8652C19.8242 11.8001 19.7469 11.7106 19.6899 11.5967C19.633 11.4827 19.6045 11.3607 19.6045 11.2305C19.6045 11.1491 19.6167 11.0718 19.6411 10.9985C19.6655 10.9253 19.694 10.8561 19.7266 10.791ZM7.6416 4.95605C7.59277 4.80957 7.50326 4.69157 7.37305 4.60205C7.24284 4.51253 7.09635 4.46777 6.93359 4.46777C6.72201 4.46777 6.5389 4.54508 6.38428 4.69971C6.22965 4.85433 6.15234 5.03744 6.15234 5.24902C6.15234 5.31413 6.16048 5.37923 6.17676 5.44434C6.19303 5.50944 6.21745 5.56641 6.25 5.61523L6.95801 7.15332C7.02311 7.2998 7.12077 7.41374 7.25098 7.49512C7.38119 7.5765 7.51953 7.61719 7.66602 7.61719C7.89388 7.61719 8.08105 7.54395 8.22754 7.39746C8.37402 7.25098 8.44727 7.0638 8.44727 6.83594C8.44727 6.77083 8.43913 6.7098 8.42285 6.65283C8.40658 6.59587 8.3903 6.54297 8.37402 6.49414L7.6416 4.95605ZM4.80957 13.0127C5.00488 12.9964 5.16764 12.915 5.29785 12.7686C5.42806 12.6221 5.49316 12.4512 5.49316 12.2559C5.49316 12.0443 5.41585 11.8612 5.26123 11.7065C5.10661 11.5519 4.9235 11.4746 4.71191 11.4746C4.67936 11.4746 4.65495 11.4746 4.63867 11.4746C4.6224 11.4746 4.59798 11.4746 4.56543 11.4746H4.58984L2.92969 11.7188C2.73438 11.7513 2.57161 11.8408 2.44141 11.9873C2.3112 12.1338 2.24609 12.3047 2.24609 12.5C2.24609 12.7116 2.32341 12.8947 2.47803 13.0493C2.63265 13.2039 2.81576 13.2812 3.02734 13.2812C3.04362 13.2812 3.06803 13.2812 3.10059 13.2812C3.13314 13.2812 3.15755 13.2731 3.17383 13.2568L4.80957 13.0127Z" fill="black"/>
</svg>
