<svg width="25" height="25" viewBox="0 0 25 25" fill="none" xmlns="http://www.w3.org/2000/svg">
<path d="M12.5 0C14.2253 0 15.8447 0.325521 17.3584 0.976562C18.8721 1.64388 20.1945 2.54313 21.3257 3.67432C22.4569 4.8055 23.3561 6.12793 24.0234 7.6416C24.6745 9.15527 25 10.7747 25 12.5C25 14.2253 24.6745 15.8447 24.0234 17.3584C23.3561 18.8721 22.4569 20.1945 21.3257 21.3257C20.1945 22.4569 18.8721 23.3561 17.3584 24.0234C15.8447 24.6745 14.2253 25 12.5 25C10.7747 25 9.15527 24.6745 7.6416 24.0234C6.12793 23.3561 4.8055 22.4569 3.67432 21.3257C2.54313 20.1945 1.64388 18.8721 0.976562 17.3584C0.325521 15.8447 0 14.2253 0 12.5C0 10.7747 0.325521 9.15527 0.976562 7.6416C1.64388 6.12793 2.54313 4.8055 3.67432 3.67432C4.8055 2.54313 6.12793 1.64388 7.6416 0.976562C9.15527 0.325521 10.7747 0 12.5 0ZM1.5625 12.5C1.5625 13.1836 1.6276 13.8509 1.75781 14.502C1.87174 15.153 2.04671 15.7796 2.28271 16.3818C2.51872 16.984 2.79948 17.5618 3.125 18.1152C3.45052 18.6523 3.82487 19.165 4.24805 19.6533L6.71387 17.1875H4.6875C4.47591 17.1875 4.29281 17.1102 4.13818 16.9556C3.98356 16.8009 3.90625 16.6178 3.90625 16.4062V13.2812C3.90625 13.0697 3.98356 12.8866 4.13818 12.7319C4.29281 12.5773 4.47591 12.5 4.6875 12.5H11.4014L19.6533 4.24805C19.1813 3.82487 18.6686 3.45052 18.1152 3.125C17.5781 2.79948 17.0044 2.51872 16.394 2.28271C15.7837 2.04671 15.153 1.87174 14.502 1.75781C13.8509 1.6276 13.1836 1.5625 12.5 1.5625C10.9863 1.5625 9.57031 1.84733 8.25195 2.41699C6.91732 3.00293 5.75765 3.78825 4.77295 4.77295C3.78825 5.75765 3.00293 6.91732 2.41699 8.25195C1.84733 9.57031 1.5625 10.9863 1.5625 12.5ZM19.5312 15.625V14.0625H16.4062V15.625H19.5312ZM14.8438 14.0625H12.0361L10.4736 15.625H14.8438V14.0625ZM9.83887 14.0625H5.46875V15.625H8.27637L9.83887 14.0625ZM23.4375 12.5C23.4375 11.8164 23.3724 11.1491 23.2422 10.498C23.1283 9.847 22.9533 9.22038 22.7173 8.61816C22.4813 8.01595 22.2005 7.43815 21.875 6.88477C21.5495 6.34766 21.1751 5.83496 20.752 5.34668L13.5986 12.5H20.3125C20.5241 12.5 20.7072 12.5773 20.8618 12.7319C21.0164 12.8866 21.0938 13.0697 21.0938 13.2812V16.4062C21.0938 16.6178 21.0164 16.8009 20.8618 16.9556C20.7072 17.1102 20.5241 17.1875 20.3125 17.1875H8.91113L5.34668 20.752C5.81869 21.1751 6.33138 21.5495 6.88477 21.875C7.42188 22.2005 7.99561 22.4813 8.60596 22.7173C9.21631 22.9533 9.847 23.1283 10.498 23.2422C11.1491 23.3724 11.8164 23.4375 12.5 23.4375C14.0137 23.4375 15.4297 23.1527 16.748 22.583C18.0827 21.9971 19.2423 21.2118 20.2271 20.2271C21.2118 19.2424 21.9971 18.0827 22.583 16.748C23.1527 15.4297 23.4375 14.0137 23.4375 12.5ZM14.0625 5.46875C14.0625 5.25716 13.9852 5.07406 13.8306 4.91943C13.6759 4.76481 13.4928 4.6875 13.2812 4.6875C13.0697 4.6875 12.8866 4.76481 12.7319 4.91943C12.5773 5.07406 12.5 5.25716 12.5 5.46875C12.5 6.11979 12.2721 6.67318 11.8164 7.12891C11.3607 7.58463 10.8073 7.8125 10.1562 7.8125H7.03125C6.16862 7.8125 5.43213 8.11768 4.82178 8.72803C4.21143 9.33838 3.90625 10.0749 3.90625 10.9375C3.90625 11.1491 3.98356 11.3322 4.13818 11.4868C4.29281 11.6414 4.47591 11.7188 4.6875 11.7188C4.89909 11.7188 5.08219 11.6414 5.23682 11.4868C5.39144 11.3322 5.46875 11.1491 5.46875 10.9375C5.46875 10.5143 5.62337 10.1481 5.93262 9.83887C6.24186 9.52962 6.60807 9.375 7.03125 9.375H10.1562C11.2305 9.375 12.1501 8.99251 12.915 8.22754C13.68 7.46256 14.0625 6.54297 14.0625 5.46875Z" fill="black"/>
</svg>
