<svg width="57" height="50" viewBox="0 0 57 50" fill="none" xmlns="http://www.w3.org/2000/svg">
<path d="M53.2227 11.4941C53.584 10.2734 53.2227 9.375 51.4844 9.375H45.7324C44.2676 9.375 43.5938 10.1465 43.2324 11.0059C43.2324 11.0059 40.3027 18.1445 36.1621 22.7734C34.8242 24.1113 34.209 24.541 33.4766 24.541C33.1152 24.541 32.5586 24.1113 32.5586 22.8906V11.4941C32.5586 10.0293 32.1484 9.375 30.9375 9.375H21.8945C20.9766 9.375 20.4297 10.0586 20.4297 10.6934C20.4297 12.0801 22.5 12.4023 22.7148 16.3086V24.7852C22.7148 26.6406 22.3828 26.9824 21.6504 26.9824C19.6973 26.9824 14.9512 19.8145 12.1387 11.6113C11.5723 10.0195 11.0156 9.375 9.54102 9.375H3.78906C2.14844 9.375 1.81641 10.1465 1.81641 11.0059C1.81641 12.5293 3.76953 20.0977 10.9082 30.0977C15.6641 36.9238 22.3633 40.625 28.457 40.625C32.1191 40.625 32.5684 39.8047 32.5684 38.3887C32.5684 31.8652 32.2363 31.25 34.0723 31.25C34.9219 31.25 36.3867 31.6797 39.8047 34.9707C43.7109 38.877 44.3555 40.625 46.543 40.625H52.2949C53.9355 40.625 54.7656 39.8047 54.2871 38.1836C53.1934 34.7754 45.8008 27.7637 45.4688 27.2949C44.6191 26.2012 44.8633 25.7129 45.4688 24.7363C45.4785 24.7266 52.5 14.8437 53.2227 11.4941Z" fill="black"/>
</svg>
