<svg width="50" height="50" viewBox="0 0 50 50" fill="none" xmlns="http://www.w3.org/2000/svg">
<path d="M43.1451 7.61337C43.1451 7.61337 47.1923 6.03524 46.855 9.86784C46.7426 11.446 45.7308 16.9694 44.9439 22.9438L42.2457 40.6414C42.2457 40.6414 42.0209 43.234 39.9973 43.6849C37.9736 44.1358 34.9383 42.1068 34.3761 41.6559C33.9265 41.3178 25.9446 36.2451 23.134 33.7653C22.347 33.0889 21.4476 31.7362 23.2464 30.1581L35.0507 18.8858C36.3998 17.5331 37.7489 14.3768 32.1277 18.2094L16.3886 28.9182C16.3886 28.9182 14.5899 30.0454 11.2173 29.0309L3.90981 26.7764C3.90981 26.7764 1.21168 25.0856 5.82099 23.3946C17.0632 18.0966 30.8911 12.6859 43.1451 7.61337Z" fill="black"/>
</svg>
