<svg width="50" height="50" viewBox="0 0 50 50" fill="none" xmlns="http://www.w3.org/2000/svg">
<path d="M25.0023 4.1665C36.5086 4.1665 45.8356 13.4936 45.8356 24.9998C45.8356 36.5061 36.5086 45.8332 25.0023 45.8332C21.3205 45.8395 17.7035 44.8651 14.5231 43.0103L4.17731 45.8332L6.99398 35.4832C5.13764 32.3018 4.16253 28.6832 4.16898 24.9998C4.16898 13.4936 13.4961 4.1665 25.0023 4.1665ZM17.9023 15.2082L17.4856 15.2248C17.2162 15.2434 16.953 15.3142 16.7106 15.4332C16.4848 15.5613 16.2785 15.7213 16.0981 15.9082C15.8481 16.1436 15.7065 16.3478 15.5544 16.5457C14.7838 17.5476 14.3689 18.7776 14.3752 20.0415C14.3794 21.0623 14.6461 22.0561 15.0627 22.9853C15.9148 24.8644 17.3169 26.854 19.1669 28.6978C19.6127 29.1415 20.0502 29.5873 20.5211 30.0019C22.8199 32.0257 25.5591 33.4852 28.5211 34.2644L29.7044 34.4457C30.0898 34.4665 30.4752 34.4373 30.8627 34.4186C31.4694 34.3866 32.0617 34.2223 32.5981 33.9373C32.8707 33.7964 33.137 33.6435 33.3961 33.479C33.3961 33.479 33.4843 33.4193 33.6565 33.2915C33.9377 33.0832 34.1106 32.9353 34.344 32.6915C34.519 32.5109 34.6648 32.3012 34.7815 32.0623C34.944 31.7228 35.1065 31.0748 35.1731 30.5353C35.2231 30.1228 35.2086 29.8978 35.2023 29.7582C35.194 29.5353 35.0086 29.304 34.8065 29.2061L33.594 28.6623C33.594 28.6623 31.7815 27.8728 30.6731 27.3686C30.5571 27.3181 30.4329 27.2891 30.3065 27.2832C30.1639 27.2683 30.0198 27.2842 29.884 27.3298C29.7481 27.3755 29.6236 27.4498 29.519 27.5478C29.5086 27.5436 29.369 27.6623 27.8627 29.4873C27.7763 29.6035 27.6572 29.6913 27.5206 29.7395C27.3841 29.7878 27.2363 29.7943 27.0961 29.7582C26.9603 29.722 26.8273 29.676 26.6981 29.6207C26.4398 29.5123 26.3502 29.4707 26.1731 29.3957C24.977 28.8746 23.8699 28.1696 22.8919 27.3061C22.6294 27.0769 22.3856 26.8269 22.1356 26.5853C21.3161 25.8003 20.6018 24.9123 20.0106 23.9436L19.8877 23.7457C19.8008 23.6119 19.7295 23.4686 19.6752 23.3186C19.5961 23.0123 19.8023 22.7665 19.8023 22.7665C19.8023 22.7665 20.3086 22.2123 20.544 21.9123C20.7731 21.6207 20.9669 21.3373 21.0919 21.1353C21.3377 20.7394 21.4148 20.3332 21.2856 20.0186C20.7023 18.5936 20.0995 17.1762 19.4773 15.7665C19.3544 15.4873 18.9898 15.2873 18.6586 15.2478C18.5461 15.2339 18.4336 15.2228 18.3211 15.2144C18.0413 15.1984 17.7608 15.2012 17.4815 15.2228L17.9023 15.2082Z" fill="black"/>
</svg>
