<svg width="25" height="26" viewBox="0 0 25 26" fill="none" xmlns="http://www.w3.org/2000/svg">
<path d="M21.875 5.50488C21.875 4.70736 21.3827 4.07666 20.3979 3.61279C19.4132 3.14893 18.1722 2.81934 16.6748 2.62402C16.3005 2.5752 15.922 2.56706 15.5396 2.59961C15.1571 2.63216 14.7705 2.68099 14.3799 2.74609C14.0706 2.77865 13.7573 2.8112 13.4399 2.84375C13.1226 2.8763 12.8092 2.89258 12.5 2.89258C12.1908 2.89258 11.8774 2.8763 11.5601 2.84375C11.2427 2.8112 10.9294 2.77865 10.6201 2.74609C10.2295 2.68099 9.84294 2.63216 9.46045 2.59961C9.07796 2.56706 8.69954 2.5752 8.3252 2.62402C6.8278 2.81934 5.58675 3.14893 4.60205 3.61279C3.61735 4.07666 3.125 4.70736 3.125 5.50488C3.125 5.99316 3.48307 6.49365 4.19922 7.00635C4.91536 7.51904 5.59896 7.95443 6.25 8.3125C6.57552 8.49154 6.8929 8.65023 7.20215 8.78857C7.51139 8.92692 7.83691 9.04492 8.17871 9.14258H6.66504C6.04655 9.14258 5.52572 9.37451 5.10254 9.83838C4.67936 10.3022 4.46777 10.8353 4.46777 11.4375C4.46777 11.7305 4.52067 12.0112 4.62646 12.2798C4.73226 12.5483 4.88281 12.7884 5.07812 13C4.88281 13.2116 4.73226 13.4517 4.62646 13.7202C4.52067 13.9888 4.46777 14.2695 4.46777 14.5625C4.46777 14.709 4.48405 14.8555 4.5166 15.002C4.54915 15.1484 4.58984 15.2949 4.63867 15.4414C3.71094 15.5716 2.92969 15.9948 2.29492 16.7109C1.66016 17.4271 1.34277 18.2734 1.34277 19.25C1.34277 20.3079 1.72119 21.2153 2.47803 21.9722C3.23486 22.729 4.14225 23.1074 5.2002 23.1074H21.46C22.0785 23.1074 22.5993 22.8755 23.0225 22.4116C23.4456 21.9478 23.6572 21.4147 23.6572 20.8125C23.6572 20.5195 23.6043 20.2388 23.4985 19.9702C23.3927 19.7017 23.2422 19.4616 23.0469 19.25C23.2422 19.0384 23.3927 18.7983 23.4985 18.5298C23.6043 18.2612 23.6572 17.9805 23.6572 17.6875C23.6572 17.0853 23.4456 16.5522 23.0225 16.0884C22.5993 15.6245 22.0785 15.3926 21.46 15.3926H20.7275C20.988 15.0671 21.1914 14.7008 21.3379 14.2939C21.4844 13.887 21.5576 13.4557 21.5576 13C21.5576 11.9421 21.1833 11.0347 20.4346 10.2778C19.6859 9.521 18.7744 9.14258 17.7002 9.14258H16.8213C17.1631 9.04492 17.4886 8.92692 17.7979 8.78857C18.1071 8.65023 18.4245 8.49154 18.75 8.3125C19.401 7.95443 20.0846 7.51904 20.8008 7.00635C21.5169 6.49365 21.875 5.99316 21.875 5.50488ZM12.5 4.35742C12.8743 4.35742 13.2365 4.33708 13.5864 4.29639C13.9364 4.2557 14.266 4.21908 14.5752 4.18652C14.9984 4.12142 15.3605 4.07666 15.6616 4.05225C15.9627 4.02783 16.2354 4.0319 16.4795 4.06445C16.5283 4.06445 16.5812 4.06852 16.6382 4.07666C16.6951 4.0848 16.7562 4.09701 16.8213 4.11328C17.3747 4.17838 18.042 4.29232 18.8232 4.45508C19.6045 4.61784 20.1253 4.93522 20.3857 5.40723C20.1253 5.73275 19.8039 6.01351 19.4214 6.24951C19.0389 6.48551 18.6686 6.70117 18.3105 6.89648C18.2617 6.91276 18.217 6.93311 18.1763 6.95752C18.1356 6.98193 18.0908 7.01042 18.042 7.04297C17.2933 7.44987 16.5161 7.74691 15.7104 7.93408C14.9048 8.12126 13.8346 8.21484 12.5 8.21484C11.1654 8.21484 10.0952 8.12126 9.28955 7.93408C8.48389 7.74691 7.70671 7.44987 6.95801 7.04297C6.90918 7.01042 6.86442 6.98193 6.82373 6.95752C6.78304 6.93311 6.73828 6.91276 6.68945 6.89648C6.33138 6.70117 5.9611 6.48551 5.57861 6.24951C5.19613 6.01351 4.87467 5.73275 4.61426 5.40723C4.87467 4.93522 5.39551 4.61784 6.17676 4.45508C6.95801 4.29232 7.62533 4.17838 8.17871 4.11328C8.24381 4.09701 8.30485 4.0848 8.36182 4.07666C8.41878 4.06852 8.47168 4.06445 8.52051 4.06445C8.76465 4.0319 9.03727 4.02783 9.33838 4.05225C9.63949 4.07666 10.0016 4.12142 10.4248 4.18652C10.734 4.21908 11.0636 4.2557 11.4136 4.29639C11.7635 4.33708 12.1257 4.35742 12.5 4.35742ZM17.7002 15.3926H6.66504C6.486 15.3926 6.31917 15.3193 6.16455 15.1729C6.00993 15.0264 5.93262 14.8229 5.93262 14.5625C5.93262 14.3021 6.00993 14.0986 6.16455 13.9521C6.31917 13.8057 6.486 13.7324 6.66504 13.7324H17.7002C17.9118 13.7324 18.0868 13.6592 18.2251 13.5127C18.3634 13.3662 18.4326 13.1953 18.4326 13C18.4326 12.8047 18.3634 12.6338 18.2251 12.4873C18.0868 12.3408 17.9118 12.2676 17.7002 12.2676H6.66504C6.486 12.2676 6.31917 12.1943 6.16455 12.0479C6.00993 11.9014 5.93262 11.6979 5.93262 11.4375C5.93262 11.1771 6.00993 10.9736 6.16455 10.8271C6.31917 10.6807 6.486 10.6074 6.66504 10.6074H17.7002C18.3675 10.6074 18.9331 10.8394 19.397 11.3032C19.8608 11.7671 20.0928 12.3327 20.0928 13C20.0928 13.6673 19.8608 14.2329 19.397 14.6968C18.9331 15.1606 18.3675 15.3926 17.7002 15.3926ZM5.2002 16.8574H21.46C21.639 16.8574 21.8058 16.9307 21.9604 17.0771C22.1151 17.2236 22.1924 17.4271 22.1924 17.6875C22.1924 17.9479 22.1151 18.1514 21.9604 18.2979C21.8058 18.4443 21.639 18.5176 21.46 18.5176H4.6875C4.49219 18.5176 4.32129 18.5908 4.1748 18.7373C4.02832 18.8838 3.95508 19.0547 3.95508 19.25C3.95508 19.4453 4.02832 19.6162 4.1748 19.7627C4.32129 19.9092 4.49219 19.9824 4.6875 19.9824H21.46C21.639 19.9824 21.8058 20.0557 21.9604 20.2021C22.1151 20.3486 22.1924 20.5521 22.1924 20.8125C22.1924 21.0729 22.1151 21.2764 21.9604 21.4229C21.8058 21.5693 21.639 21.6426 21.46 21.6426H5.2002C4.54915 21.6426 3.98763 21.4106 3.51562 20.9468C3.04362 20.4829 2.80762 19.9173 2.80762 19.25C2.80762 18.5827 3.04362 18.0171 3.51562 17.5532C3.98763 17.0894 4.54915 16.8574 5.2002 16.8574Z" fill="black"/>
</svg>
