<svg width="25" height="25" viewBox="0 0 25 25" fill="none" xmlns="http://www.w3.org/2000/svg">
<path d="M11.7676 7.42188C11.7676 8.02409 11.5519 8.54085 11.1206 8.97217C10.6893 9.40348 10.1725 9.61914 9.57031 9.61914H9.5459C8.94368 9.61914 8.42692 9.40348 7.99561 8.97217C7.56429 8.54085 7.34863 8.02409 7.34863 7.42188C7.34863 6.80338 7.56429 6.27848 7.99561 5.84717C8.42692 5.41585 8.95182 5.2002 9.57031 5.2002C10.1725 5.2002 10.6893 5.41585 11.1206 5.84717C11.5519 6.27848 11.7676 6.80338 11.7676 7.42188ZM10.3027 7.42188C10.3027 7.21029 10.2295 7.03125 10.083 6.88477C9.93652 6.73828 9.76562 6.66504 9.57031 6.66504H9.5459C9.35059 6.66504 9.17969 6.73828 9.0332 6.88477C8.88672 7.03125 8.81348 7.21029 8.81348 7.42188C8.81348 7.61719 8.88672 7.78809 9.0332 7.93457C9.17969 8.08105 9.35059 8.1543 9.5459 8.1543C9.75749 8.1543 9.93652 8.08105 10.083 7.93457C10.2295 7.78809 10.3027 7.61719 10.3027 7.42188ZM7.34863 11.3281C7.34863 11.9303 7.13298 12.4471 6.70166 12.8784C6.27035 13.3097 5.75358 13.5254 5.15137 13.5254C4.53288 13.5254 4.00798 13.3097 3.57666 12.8784C3.14534 12.4471 2.92969 11.9303 2.92969 11.3281C2.94596 10.7259 3.16569 10.2091 3.58887 9.77783C4.01204 9.34652 4.53288 9.13086 5.15137 9.13086C5.75358 9.13086 6.27035 9.34652 6.70166 9.77783C7.13298 10.2091 7.34863 10.7259 7.34863 11.3281ZM5.88379 11.3281C5.88379 11.1328 5.81055 10.9619 5.66406 10.8154C5.51758 10.6689 5.34668 10.5957 5.15137 10.5957C4.93978 10.5957 4.76074 10.6689 4.61426 10.8154C4.46777 10.9619 4.39453 11.1328 4.39453 11.3281C4.39453 11.5397 4.46777 11.7147 4.61426 11.853C4.76074 11.9914 4.93978 12.0605 5.15137 12.0605C5.34668 12.0605 5.51758 11.9914 5.66406 11.853C5.81055 11.7147 5.88379 11.5397 5.88379 11.3281ZM17.6514 11.3281C17.6514 10.7259 17.867 10.2091 18.2983 9.77783C18.7297 9.34652 19.2464 9.13086 19.8486 9.13086C20.4671 9.13086 20.988 9.34652 21.4111 9.77783C21.8343 10.2091 22.054 10.7259 22.0703 11.3281C22.054 11.9303 21.8343 12.4471 21.4111 12.8784C20.988 13.3097 20.4671 13.5254 19.8486 13.5254C19.2464 13.5254 18.7297 13.3097 18.2983 12.8784C17.867 12.4471 17.6514 11.9303 17.6514 11.3281ZM19.1162 11.3281C19.1162 11.5397 19.1895 11.7147 19.3359 11.853C19.4824 11.9914 19.6533 12.0605 19.8486 12.0605C20.0602 12.0605 20.2393 11.9914 20.3857 11.853C20.5322 11.7147 20.6055 11.5397 20.6055 11.3281C20.6055 11.1165 20.5322 10.9416 20.3857 10.8032C20.2393 10.6649 20.0602 10.5957 19.8486 10.5957C19.6533 10.5957 19.4824 10.6649 19.3359 10.8032C19.1895 10.9416 19.1162 11.1165 19.1162 11.3281ZM17.9443 7.42188C17.9443 8.02409 17.7287 8.54085 17.2974 8.97217C16.866 9.40348 16.3493 9.61914 15.7471 9.61914C15.1449 9.61914 14.6281 9.40348 14.1968 8.97217C13.7655 8.54085 13.5498 8.02409 13.5498 7.42188C13.5498 6.80338 13.7655 6.27848 14.1968 5.84717C14.6281 5.41585 15.1449 5.2002 15.7471 5.2002C16.3493 5.2002 16.866 5.41585 17.2974 5.84717C17.7287 6.27848 17.9443 6.80338 17.9443 7.42188ZM16.4795 7.42188C16.4795 7.21029 16.4062 7.03125 16.2598 6.88477C16.1133 6.73828 15.9424 6.66504 15.7471 6.66504C15.5355 6.66504 15.3605 6.73828 15.2222 6.88477C15.0838 7.03125 15.0146 7.21029 15.0146 7.42188C15.0146 7.61719 15.0838 7.78809 15.2222 7.93457C15.3605 8.08105 15.5355 8.1543 15.7471 8.1543C15.9424 8.1543 16.1133 8.08105 16.2598 7.93457C16.4062 7.78809 16.4795 7.61719 16.4795 7.42188ZM12.5 9.76562C11.8001 9.76562 11.1328 9.92432 10.498 10.2417C9.86328 10.5591 9.30176 11.0189 8.81348 11.6211C8.34147 12.207 7.97933 12.8703 7.72705 13.6108C7.47477 14.3514 7.34863 15.1286 7.34863 15.9424C7.34863 16.3167 7.4056 16.7318 7.51953 17.1875C7.63346 17.6432 7.83691 18.0013 8.12988 18.2617C8.48796 18.5872 8.91927 18.7541 9.42383 18.7622C9.92839 18.7703 10.4574 18.75 11.0107 18.7012C11.2549 18.6686 11.499 18.6442 11.7432 18.6279C11.9873 18.6117 12.2396 18.6035 12.5 18.6035C12.7604 18.6035 13.0127 18.6117 13.2568 18.6279C13.501 18.6442 13.7451 18.6686 13.9893 18.7012C14.2008 18.7174 14.4084 18.7337 14.6118 18.75C14.8153 18.7663 15.0146 18.7744 15.21 18.7744C15.5355 18.7744 15.8366 18.7419 16.1133 18.6768C16.39 18.6117 16.6423 18.4733 16.8701 18.2617C17.1305 18.0176 17.3258 17.7083 17.4561 17.334C17.5863 16.9596 17.6514 16.4958 17.6514 15.9424C17.6514 15.1286 17.5252 14.3514 17.2729 13.6108C17.0207 12.8703 16.6585 12.207 16.1865 11.6211C15.7308 11.0514 15.1815 10.5998 14.5386 10.2661C13.8957 9.93245 13.2161 9.76562 12.5 9.76562ZM16.1865 15.9424C16.1865 16.2516 16.1621 16.512 16.1133 16.7236C16.0645 16.9352 15.9912 17.0817 15.8936 17.1631C15.7633 17.277 15.5355 17.3299 15.21 17.3218C14.8844 17.3136 14.5345 17.2852 14.1602 17.2363H14.1357C13.8916 17.2038 13.6312 17.1794 13.3545 17.1631C13.0778 17.1468 12.793 17.1387 12.5 17.1387C12.207 17.1387 11.9222 17.1509 11.6455 17.1753C11.3688 17.1997 11.1084 17.2201 10.8643 17.2363C10.4736 17.2852 10.1156 17.3136 9.79004 17.3218C9.46452 17.3299 9.23665 17.277 9.10645 17.1631C8.94368 17.0166 8.84196 16.8538 8.80127 16.6748C8.76058 16.4958 8.74023 16.3005 8.74023 16.0889C8.74023 16.0563 8.74023 16.0319 8.74023 16.0156C8.74023 15.9993 8.7321 15.9749 8.71582 15.9424C8.71582 14.4775 9.11458 13.326 9.91211 12.4878C10.7096 11.6496 11.5723 11.2305 12.5 11.2305C13.6882 11.2305 14.5996 11.7594 15.2344 12.8174C15.8691 13.8753 16.1865 14.917 16.1865 15.9424ZM12.5 25C10.7747 25 9.15527 24.6745 7.6416 24.0234C6.11165 23.3724 4.78109 22.4813 3.6499 21.3501C2.51872 20.2189 1.6276 18.8883 0.976562 17.3584C0.325521 15.8447 0 14.2253 0 12.5C0 10.7747 0.325521 9.15527 0.976562 7.6416C1.6276 6.11165 2.51872 4.78109 3.6499 3.6499C4.78109 2.51872 6.11165 1.6276 7.6416 0.976562C9.15527 0.325521 10.7747 0 12.5 0C14.2253 0 15.8447 0.325521 17.3584 0.976562C18.8883 1.6276 20.2189 2.51872 21.3501 3.6499C22.4813 4.78109 23.3724 6.11165 24.0234 7.6416C24.6745 9.15527 25 10.7747 25 12.5C25 14.2253 24.6745 15.8447 24.0234 17.3584C23.3724 18.8883 22.4813 20.2189 21.3501 21.3501C20.2189 22.4813 18.8883 23.3724 17.3584 24.0234C15.8447 24.6745 14.2253 25 12.5 25ZM12.5 23.4375C14.0137 23.4375 15.4297 23.1527 16.748 22.583C18.0827 22.0133 19.2464 21.2321 20.2393 20.2393C21.2321 19.2464 22.0133 18.0827 22.583 16.748C23.1527 15.4297 23.4375 14.0137 23.4375 12.5C23.4375 10.9863 23.1527 9.57031 22.583 8.25195C22.0133 6.91732 21.2321 5.75358 20.2393 4.76074C19.2464 3.7679 18.0827 2.98665 16.748 2.41699C15.4297 1.84733 14.0137 1.5625 12.5 1.5625C10.9863 1.5625 9.57031 1.84733 8.25195 2.41699C6.91732 2.98665 5.75358 3.7679 4.76074 4.76074C3.7679 5.75358 2.98665 6.91732 2.41699 8.25195C1.84733 9.57031 1.5625 10.9863 1.5625 12.5C1.5625 14.0137 1.84733 15.4297 2.41699 16.748C2.98665 18.0827 3.7679 19.2464 4.76074 20.2393C5.75358 21.2321 6.91732 22.0133 8.25195 22.583C9.57031 23.1527 10.9863 23.4375 12.5 23.4375Z" fill="black"/>
</svg>
