<svg width="25" height="25" viewBox="0 0 25 25" fill="none" xmlns="http://www.w3.org/2000/svg">
<path d="M9.57031 9.30176C10.1725 9.30176 10.6893 9.09017 11.1206 8.66699C11.5519 8.24381 11.7676 7.72298 11.7676 7.10449C11.7676 6.50228 11.5519 5.98551 11.1206 5.5542C10.6893 5.12288 10.1725 4.90723 9.57031 4.90723C8.95182 4.90723 8.42692 5.12288 7.99561 5.5542C7.56429 5.98551 7.34863 6.50228 7.34863 7.10449C7.34863 7.72298 7.56429 8.24381 7.99561 8.66699C8.42692 9.09017 8.94368 9.30176 9.5459 9.30176H9.57031ZM9.57031 6.37207C9.76562 6.37207 9.93652 6.44531 10.083 6.5918C10.2295 6.73828 10.3027 6.90918 10.3027 7.10449C10.3027 7.31608 10.2295 7.49512 10.083 7.6416C9.93652 7.78809 9.75749 7.86133 9.5459 7.86133C9.35059 7.86133 9.17969 7.78809 9.0332 7.6416C8.88672 7.49512 8.81348 7.31608 8.81348 7.10449C8.81348 6.90918 8.88672 6.73828 9.0332 6.5918C9.17969 6.44531 9.35059 6.37207 9.5459 6.37207C9.5459 6.37207 9.55404 6.37207 9.57031 6.37207ZM5.15137 13.2324C5.75358 13.2324 6.27035 13.0168 6.70166 12.5854C7.13298 12.1541 7.34863 11.6374 7.34863 11.0352C7.34863 10.4167 7.13298 9.89583 6.70166 9.47266C6.27035 9.04948 5.75358 8.83789 5.15137 8.83789C4.53288 8.83789 4.01204 9.04948 3.58887 9.47266C3.16569 9.89583 2.94596 10.4167 2.92969 11.0352C2.92969 11.6374 3.14534 12.1541 3.57666 12.5854C4.00798 13.0168 4.53288 13.2324 5.15137 13.2324ZM5.15137 10.3027C5.34668 10.3027 5.51758 10.3719 5.66406 10.5103C5.81055 10.6486 5.88379 10.8236 5.88379 11.0352C5.88379 11.2305 5.81055 11.4014 5.66406 11.5479C5.51758 11.6943 5.34668 11.7676 5.15137 11.7676C4.93978 11.7676 4.76074 11.6943 4.61426 11.5479C4.46777 11.4014 4.39453 11.2305 4.39453 11.0352C4.39453 10.8236 4.46777 10.6486 4.61426 10.5103C4.76074 10.3719 4.93978 10.3027 5.15137 10.3027ZM19.8486 8.83789C19.2464 8.83789 18.7297 9.04948 18.2983 9.47266C17.867 9.89583 17.6514 10.4167 17.6514 11.0352C17.6514 11.6374 17.867 12.1541 18.2983 12.5854C18.7297 13.0168 19.2464 13.2324 19.8486 13.2324C20.4671 13.2324 20.988 13.0168 21.4111 12.5854C21.8343 12.1541 22.054 11.6374 22.0703 11.0352C22.054 10.4167 21.8343 9.89583 21.4111 9.47266C20.988 9.04948 20.4671 8.83789 19.8486 8.83789ZM19.8486 11.7676C19.6533 11.7676 19.4824 11.6943 19.3359 11.5479C19.1895 11.4014 19.1162 11.2305 19.1162 11.0352C19.1162 10.8236 19.1895 10.6445 19.3359 10.498C19.4824 10.3516 19.6533 10.2783 19.8486 10.2783C20.0602 10.2783 20.2393 10.3516 20.3857 10.498C20.5322 10.6445 20.6055 10.8236 20.6055 11.0352C20.6055 11.2305 20.5322 11.4014 20.3857 11.5479C20.2393 11.6943 20.0602 11.7676 19.8486 11.7676ZM21.3379 3.66211C20.7682 3.09245 20.1579 2.57975 19.5068 2.12402C18.8395 1.68457 18.1315 1.30615 17.3828 0.98877C16.6341 0.671387 15.8529 0.423178 15.0391 0.244141C14.2253 0.0813808 13.387 0 12.5244 0C12.5244 0 12.5203 0 12.5122 0C12.5041 0 12.5 0 12.5 0C12.5 0 12.4959 0 12.4878 0C12.4797 0 12.4756 0 12.4756 0C11.613 0 10.7747 0.0813808 9.96094 0.244141C9.14714 0.423178 8.36589 0.671387 7.61719 0.98877C6.86849 1.30615 6.16048 1.68457 5.49316 2.12402C4.84212 2.57975 4.23177 3.09245 3.66211 3.66211C3.09245 4.23177 2.57975 4.84212 2.12402 5.49316C1.68457 6.16048 1.30615 6.86849 0.98877 7.61719C0.671387 8.36588 0.423177 9.14714 0.244141 9.96094C0.0813802 10.7747 0 11.613 0 12.4756C0 12.4756 0 12.4797 0 12.4878C0 12.4959 0 12.5 0 12.5C0 13.3301 0.0813802 14.152 0.244141 14.9658C0.406901 15.7633 0.642904 16.5365 0.952148 17.2852C1.26139 18.0339 1.64388 18.75 2.09961 19.4336C2.55534 20.1172 3.07617 20.752 3.66211 21.3379C4.23177 21.9076 4.84212 22.4202 5.49316 22.876C6.16048 23.3154 6.86849 23.6938 7.61719 24.0112C8.36589 24.3286 9.14714 24.5768 9.96094 24.7559C10.7747 24.9186 11.613 25 12.4756 25C12.4756 25 12.4797 25 12.4878 25C12.4959 25 12.5 25 12.5 25C13.3301 25 14.152 24.9186 14.9658 24.7559C15.7633 24.5931 16.5365 24.3571 17.2852 24.0479C18.0339 23.7386 18.75 23.3561 19.4336 22.9004C20.1172 22.4447 20.752 21.9238 21.3379 21.3379C21.9076 20.7682 22.4202 20.1579 22.876 19.5068C23.3154 18.8395 23.6938 18.1315 24.0112 17.3828C24.3286 16.6341 24.5768 15.8529 24.7559 15.0391C24.9186 14.2253 25 13.387 25 12.5244C25 12.5244 25 12.5203 25 12.5122C25 12.5041 25 12.5 25 12.5C25 11.6699 24.9186 10.848 24.7559 10.0342C24.5931 9.23665 24.3571 8.46354 24.0479 7.71484C23.7386 6.96615 23.3561 6.25 22.9004 5.56641C22.4447 4.88281 21.9238 4.24805 21.3379 3.66211ZM12.5 1.46484C13.1999 1.46484 13.8753 1.52995 14.5264 1.66016C15.1937 1.77409 15.8325 1.94906 16.4429 2.18506C17.0532 2.42106 17.6432 2.70996 18.2129 3.05176C18.7663 3.39355 19.2871 3.77604 19.7754 4.19922L17.5293 6.4209C17.3828 5.98145 17.1183 5.6193 16.7358 5.33447C16.3534 5.04964 15.9261 4.90723 15.4541 4.90723C14.8356 4.90723 14.3107 5.12288 13.8794 5.5542C13.4481 5.98551 13.2324 6.50228 13.2324 7.10449C13.2324 7.59277 13.3748 8.02816 13.6597 8.41064C13.9445 8.79313 14.3148 9.05762 14.7705 9.2041L13.9404 10.0098C13.7288 9.92839 13.501 9.86735 13.2568 9.82666C13.0127 9.78597 12.7604 9.76562 12.5 9.76562C11.8001 9.76562 11.1328 9.92839 10.498 10.2539C9.86328 10.5794 9.30176 11.0433 8.81348 11.6455C8.34147 12.2152 7.97933 12.8703 7.72705 13.6108C7.47477 14.3514 7.34863 15.1286 7.34863 15.9424C7.34863 16.0563 7.3527 16.1662 7.36084 16.272C7.36898 16.3778 7.38119 16.4795 7.39746 16.5771L4.19922 19.7754C3.77604 19.2871 3.39355 18.7663 3.05176 18.2129C2.70996 17.6595 2.42106 17.0776 2.18506 16.4673C1.94906 15.8569 1.77409 15.2181 1.66016 14.5508C1.52995 13.8835 1.46484 13.1999 1.46484 12.5C1.46484 10.9863 1.75781 9.55404 2.34375 8.20312C2.91341 6.86849 3.69873 5.70068 4.69971 4.69971C5.70068 3.69873 6.86849 2.91341 8.20312 2.34375C9.55404 1.75781 10.9863 1.46484 12.5 1.46484ZM14.6973 7.10449C14.6973 6.90918 14.7705 6.73828 14.917 6.5918C15.0635 6.44531 15.2425 6.37207 15.4541 6.37207C15.6494 6.37207 15.8203 6.44531 15.9668 6.5918C16.1133 6.73828 16.1865 6.90918 16.1865 7.10449C16.1865 7.31608 16.1133 7.49512 15.9668 7.6416C15.8203 7.78809 15.6494 7.86133 15.4541 7.86133C15.2425 7.86133 15.0635 7.78809 14.917 7.6416C14.7705 7.49512 14.6973 7.31608 14.6973 7.10449ZM16.1865 15.9424C16.1865 16.2516 16.1621 16.512 16.1133 16.7236C16.0645 16.9352 15.9912 17.0817 15.8936 17.1631C15.7633 17.277 15.5355 17.3299 15.21 17.3218C14.8844 17.3136 14.5264 17.2852 14.1357 17.2363C13.9079 17.2038 13.6515 17.1794 13.3667 17.1631C13.0819 17.1468 12.793 17.1387 12.5 17.1387C12.207 17.1387 11.9222 17.1509 11.6455 17.1753C11.3688 17.1997 11.1084 17.2201 10.8643 17.2363C10.4736 17.2852 10.1156 17.3136 9.79004 17.3218C9.46452 17.3299 9.23665 17.277 9.10645 17.1631C9.07389 17.1468 9.04948 17.1265 9.0332 17.1021C9.01693 17.0776 9.00879 17.0573 9.00879 17.041L14.2334 11.792C14.8193 12.1989 15.2913 12.7686 15.6494 13.501C16.0075 14.2334 16.1865 15.0472 16.1865 15.9424ZM8.88672 15.0879C9.04948 13.9974 9.46859 13.0819 10.144 12.3413C10.8195 11.6007 11.6048 11.2305 12.5 11.2305C12.5326 11.2305 12.5692 11.2305 12.6099 11.2305C12.6506 11.2305 12.6872 11.2305 12.7197 11.2305L8.88672 15.0879ZM12.5 23.5352C11.8001 23.5352 11.1165 23.4701 10.4492 23.3398C9.7819 23.2259 9.14307 23.0509 8.53271 22.8149C7.92236 22.5789 7.34049 22.29 6.78711 21.9482C6.23372 21.6064 5.71289 21.224 5.22461 20.8008L7.95898 18.0908C7.97526 18.1234 7.99967 18.1519 8.03223 18.1763C8.06478 18.2007 8.09733 18.2292 8.12988 18.2617C8.48796 18.5872 8.91927 18.7581 9.42383 18.7744C9.92839 18.7907 10.4574 18.7663 11.0107 18.7012C11.2549 18.6686 11.499 18.6442 11.7432 18.6279C11.9873 18.6117 12.2396 18.6035 12.5 18.6035C12.7604 18.6035 13.0127 18.6117 13.2568 18.6279C13.501 18.6442 13.7451 18.6686 13.9893 18.7012C14.2008 18.7174 14.4084 18.7378 14.6118 18.7622C14.8153 18.7866 15.0146 18.7988 15.21 18.7988C15.5355 18.7988 15.8366 18.7622 16.1133 18.689C16.39 18.6157 16.6423 18.4733 16.8701 18.2617C17.1305 18.0339 17.3258 17.7287 17.4561 17.3462C17.5863 16.9637 17.6514 16.4958 17.6514 15.9424C17.6514 15.1286 17.5252 14.3514 17.2729 13.6108C17.0207 12.8703 16.6585 12.2152 16.1865 11.6455C16.0563 11.4665 15.918 11.3037 15.7715 11.1572C15.625 11.0107 15.4704 10.8805 15.3076 10.7666L15.2832 10.7422L20.8008 5.22461C21.224 5.71289 21.6064 6.23372 21.9482 6.78711C22.29 7.34049 22.5789 7.92236 22.8149 8.53271C23.0509 9.14307 23.2259 9.7819 23.3398 10.4492C23.4701 11.1165 23.5352 11.8001 23.5352 12.5C23.5352 14.0137 23.2422 15.446 22.6562 16.7969C22.0866 18.1315 21.3013 19.2993 20.3003 20.3003C19.2993 21.3013 18.1315 22.0866 16.7969 22.6562C15.446 23.2422 14.0137 23.5352 12.5 23.5352Z" fill="black"/>
</svg>
