<svg width="25" height="25" viewBox="0 0 25 25" fill="none" xmlns="http://www.w3.org/2000/svg">
<path d="M13.5498 5.2002C13.7614 5.2002 13.9445 5.27751 14.0991 5.43213C14.2537 5.58675 14.3311 5.76172 14.3311 5.95703C14.3311 7.01497 13.9486 7.91016 13.1836 8.64258C12.4186 9.375 11.499 9.74935 10.4248 9.76562H7.2998C6.86035 9.76562 6.49007 9.91211 6.18896 10.2051C5.88786 10.498 5.7373 10.8561 5.7373 11.2793C5.7373 11.4746 5.65999 11.6496 5.50537 11.8042C5.35075 11.9588 5.16764 12.0361 4.95605 12.0361C4.72819 12.0361 4.54102 11.9588 4.39453 11.8042C4.24805 11.6496 4.1748 11.4746 4.1748 11.2793C4.1748 10.4329 4.47998 9.71273 5.09033 9.11865C5.70068 8.52458 6.43717 8.22754 7.2998 8.22754H10.4248C11.0596 8.22754 11.6089 8.00781 12.0728 7.56836C12.5366 7.12891 12.7686 6.5918 12.7686 5.95703C12.7686 5.76172 12.8418 5.58675 12.9883 5.43213C13.1348 5.27751 13.3219 5.2002 13.5498 5.2002ZM21.3623 16.5771V13.5498C21.3623 13.3382 21.285 13.1592 21.1304 13.0127C20.9757 12.8662 20.7926 12.793 20.5811 12.793H4.95605C4.72819 12.793 4.54102 12.8662 4.39453 13.0127C4.24805 13.1592 4.1748 13.3382 4.1748 13.5498V16.5771C4.1748 16.7887 4.24805 16.9678 4.39453 17.1143C4.54102 17.2607 4.72819 17.334 4.95605 17.334H20.5811C20.7926 17.334 20.9757 17.2607 21.1304 17.1143C21.285 16.9678 21.3623 16.7887 21.3623 16.5771ZM19.7998 14.3066V15.8203H16.6748V14.3066H19.7998ZM12.3047 14.3066H15.1123V15.8203H10.7422L12.3047 14.3066ZM5.7373 14.3066H10.083L8.52051 15.8203H5.7373V14.3066ZM25 12.5C25 10.7747 24.6745 9.15527 24.0234 7.6416C23.3724 6.11165 22.4813 4.78109 21.3501 3.6499C20.2189 2.51872 18.8883 1.6276 17.3584 0.976562C15.8447 0.325521 14.2253 0 12.5 0C10.7747 0 9.15527 0.325521 7.6416 0.976562C6.11165 1.6276 4.78109 2.51872 3.6499 3.6499C2.51872 4.78109 1.6276 6.11165 0.976562 7.6416C0.325521 9.15527 0 10.7747 0 12.5C0 14.2253 0.325521 15.8447 0.976562 17.3584C1.6276 18.8883 2.51872 20.2189 3.6499 21.3501C4.78109 22.4813 6.11165 23.3724 7.6416 24.0234C9.15527 24.6745 10.7747 25 12.5 25C14.2253 25 15.8447 24.6745 17.3584 24.0234C18.8883 23.3724 20.2189 22.4813 21.3501 21.3501C22.4813 20.2189 23.3724 18.8883 24.0234 17.3584C24.6745 15.8447 25 14.2253 25 12.5ZM23.4375 12.5C23.4375 14.0137 23.1527 15.4297 22.583 16.748C22.0133 18.0827 21.2321 19.2464 20.2393 20.2393C19.2464 21.2321 18.0827 22.0133 16.748 22.583C15.4297 23.1527 14.0137 23.4375 12.5 23.4375C10.9863 23.4375 9.57031 23.1527 8.25195 22.583C6.91732 22.0133 5.75358 21.2321 4.76074 20.2393C3.7679 19.2464 2.98665 18.0827 2.41699 16.748C1.84733 15.4297 1.5625 14.0137 1.5625 12.5C1.5625 10.9863 1.84733 9.57031 2.41699 8.25195C2.98665 6.91732 3.7679 5.75358 4.76074 4.76074C5.75358 3.7679 6.91732 2.98665 8.25195 2.41699C9.57031 1.84733 10.9863 1.5625 12.5 1.5625C14.0137 1.5625 15.4297 1.84733 16.748 2.41699C18.0827 2.98665 19.2464 3.7679 20.2393 4.76074C21.2321 5.75358 22.0133 6.91732 22.583 8.25195C23.1527 9.57031 23.4375 10.9863 23.4375 12.5Z" fill="black"/>
</svg>
